EBGaramondVF-Subhead_Regular.ufo
<glyph name="dollar" format="1">
  <advance width="441"/>
  <unicode hex="0024"/>
  <outline>
    <contour>
      <point x="174" y="-82" type="curve" smooth="yes"/>
      <point x="180" y="-82"/>
      <point x="188" y="-78"/>
      <point x="189" y="-70" type="curve" smooth="yes"/>
      <point x="196" y="6" type="line" smooth="yes"/>
      <point x="197" y="11"/>
      <point x="200" y="13"/>
      <point x="205" y="13" type="curve" smooth="yes"/>
      <point x="317" y="16"/>
      <point x="398" y="87"/>
      <point x="398" y="185" type="curve" smooth="yes"/>
      <point x="398" y="271"/>
      <point x="336" y="314"/>
      <point x="257" y="357" type="curve"/>
      <point x="241" y="366"/>
      <point x="243" y="366"/>
      <point x="244" y="374" type="curve" smooth="yes"/>
      <point x="269" y="577" type="line"/>
      <point x="269" y="579"/>
      <point x="271" y="582"/>
      <point x="274" y="582" type="curve" smooth="yes"/>
      <point x="309" y="577"/>
      <point x="336" y="532"/>
      <point x="356" y="481" type="curve" smooth="yes"/>
      <point x="359" y="474"/>
      <point x="369" y="468"/>
      <point x="380" y="468" type="curve" smooth="yes"/>
      <point x="386" y="468"/>
      <point x="392" y="471"/>
      <point x="392" y="479" type="curve" smooth="yes"/>
      <point x="392" y="506"/>
      <point x="380" y="540"/>
      <point x="373" y="566" type="curve" smooth="yes"/>
      <point x="370" y="574"/>
      <point x="363" y="584"/>
      <point x="353" y="587" type="curve" smooth="yes"/>
      <point x="338" y="593"/>
      <point x="310" y="605"/>
      <point x="279" y="607" type="curve" smooth="yes"/>
      <point x="275" y="607"/>
      <point x="275" y="611"/>
      <point x="275" y="613" type="curve" smooth="yes"/>
      <point x="275" y="622"/>
      <point x="281" y="665"/>
      <point x="281" y="673" type="curve"/>
      <point x="281" y="680"/>
      <point x="278" y="685"/>
      <point x="273" y="685" type="curve" smooth="yes"/>
      <point x="265" y="685"/>
      <point x="258" y="683"/>
      <point x="256" y="670" type="curve" smooth="yes"/>
      <point x="251" y="614" type="line" smooth="yes"/>
      <point x="251" y="611"/>
      <point x="248" y="608"/>
      <point x="244" y="608" type="curve" smooth="yes"/>
      <point x="117" y="605"/>
      <point x="56" y="531"/>
      <point x="56" y="448" type="curve" smooth="yes"/>
      <point x="56" y="374"/>
      <point x="128" y="326"/>
      <point x="193" y="290" type="curve" smooth="yes"/>
      <point x="205" y="283"/>
      <point x="206" y="278"/>
      <point x="205" y="273" type="curve" smooth="yes"/>
      <point x="177" y="41" type="line" smooth="yes"/>
      <point x="177" y="37"/>
      <point x="172" y="37"/>
      <point x="168" y="39" type="curve"/>
      <point x="131" y="54"/>
      <point x="87" y="86"/>
      <point x="68" y="169" type="curve" smooth="yes"/>
      <point x="66" y="176"/>
      <point x="61" y="180"/>
      <point x="55" y="180" type="curve" smooth="yes"/>
      <point x="47" y="180"/>
      <point x="40" y="175"/>
      <point x="40" y="167" type="curve"/>
      <point x="42" y="143"/>
      <point x="42" y="98"/>
      <point x="49" y="74" type="curve" smooth="yes"/>
      <point x="51" y="67"/>
      <point x="57" y="61"/>
      <point x="61" y="56" type="curve" smooth="yes"/>
      <point x="88" y="36"/>
      <point x="128" y="17"/>
      <point x="165" y="15" type="curve" smooth="yes"/>
      <point x="168" y="15"/>
      <point x="173" y="12"/>
      <point x="172" y="6" type="curve"/>
      <point x="164" y="-67" type="line" smooth="yes"/>
      <point x="163" y="-75"/>
      <point x="168" y="-82"/>
    </contour>
    <contour>
      <point x="210" y="34" type="curve"/>
      <point x="204" y="34"/>
      <point x="202" y="36"/>
      <point x="202" y="44" type="curve"/>
      <point x="228" y="263" type="line" smooth="yes"/>
      <point x="229" y="266"/>
      <point x="231" y="269"/>
      <point x="235" y="267" type="curve"/>
      <point x="287" y="240"/>
      <point x="319" y="209"/>
      <point x="319" y="151" type="curve" smooth="yes"/>
      <point x="319" y="90"/>
      <point x="275" y="36"/>
    </contour>
    <contour>
      <point x="211" y="383" type="curve"/>
      <point x="166" y="408"/>
      <point x="134" y="441"/>
      <point x="134" y="477" type="curve" smooth="yes"/>
      <point x="134" y="544"/>
      <point x="179" y="584"/>
      <point x="238" y="586" type="curve"/>
      <point x="244" y="586"/>
      <point x="246" y="583"/>
      <point x="246" y="578" type="curve"/>
      <point x="221" y="384" type="line"/>
      <point x="221" y="382"/>
      <point x="219" y="379"/>
    </contour>
  </outline>
</glyph>
<glyph name="ampersand" format="1">
  <advance width="756"/>
  <unicode hex="0026"/>
  <outline>
    <contour>
      <point x="212" y="-15" type="curve" smooth="yes"/>
      <point x="305" y="-15"/>
      <point x="348" y="52"/>
      <point x="411" y="120" type="curve"/>
      <point x="417" y="126" type="line"/>
      <point x="432" y="101" type="line" smooth="yes"/>
      <point x="482" y="21"/>
      <point x="511" y="-14"/>
      <point x="586" y="-14" type="curve" smooth="yes"/>
      <point x="641" y="-14"/>
      <point x="714" y="38"/>
      <point x="714" y="55" type="curve" smooth="yes"/>
      <point x="714" y="61"/>
      <point x="713" y="63"/>
      <point x="706" y="63" type="curve" smooth="yes"/>
      <point x="702" y="63"/>
      <point x="696" y="59"/>
      <point x="689" y="55" type="curve" smooth="yes"/>
      <point x="671" y="43"/>
      <point x="647" y="35"/>
      <point x="613" y="35" type="curve" smooth="yes"/>
      <point x="562" y="35"/>
      <point x="518" y="79"/>
      <point x="476" y="141" type="curve" smooth="yes"/>
      <point x="457" y="169" type="line"/>
      <point x="457" y="169"/>
      <point x="625" y="349"/>
      <point x="638" y="360" type="curve" smooth="yes"/>
      <point x="654" y="374"/>
      <point x="680" y="389"/>
      <point x="711" y="391" type="curve"/>
      <point x="720" y="391"/>
      <point x="736" y="399"/>
      <point x="736" y="405" type="curve" smooth="yes"/>
      <point x="736" y="408"/>
      <point x="727" y="411"/>
      <point x="724" y="411" type="curve" smooth="yes"/>
      <point x="700" y="411"/>
      <point x="658" y="400"/>
      <point x="628" y="400" type="curve" smooth="yes"/>
      <point x="613" y="400"/>
      <point x="563" y="404"/>
      <point x="557" y="404" type="curve" smooth="yes"/>
      <point x="553" y="404"/>
      <point x="535" y="403"/>
      <point x="535" y="396" type="curve" smooth="yes"/>
      <point x="535" y="392"/>
      <point x="544" y="389"/>
      <point x="552" y="387" type="curve"/>
      <point x="582" y="383"/>
      <point x="588" y="371"/>
      <point x="588" y="363" type="curve" smooth="yes"/>
      <point x="588" y="343"/>
      <point x="515" y="250"/>
      <point x="467" y="199" type="curve" smooth="yes"/>
      <point x="449" y="180" type="line"/>
      <point x="434" y="200" type="line" smooth="yes"/>
      <point x="392" y="256"/>
      <point x="356" y="291"/>
      <point x="305" y="346" type="curve" smooth="yes"/>
      <point x="292" y="360" type="line"/>
      <point x="306" y="365" type="line" smooth="yes"/>
      <point x="372" y="389"/>
      <point x="412" y="426"/>
      <point x="411" y="477" type="curve" smooth="yes"/>
      <point x="411" y="529"/>
      <point x="370" y="599"/>
      <point x="284" y="599" type="curve" smooth="yes"/>
      <point x="215" y="599"/>
      <point x="145" y="554"/>
      <point x="145" y="484" type="curve" smooth="yes"/>
      <point x="145" y="425"/>
      <point x="191" y="389"/>
      <point x="210" y="367" type="curve"/>
      <point x="228" y="348" type="line"/>
      <point x="208" y="339" type="line" smooth="yes"/>
      <point x="107" y="294"/>
      <point x="38" y="235"/>
      <point x="38" y="127" type="curve" smooth="yes"/>
      <point x="38" y="45"/>
      <point x="109" y="-15"/>
    </contour>
    <contour>
      <point x="238" y="50" type="curve" smooth="yes"/>
      <point x="165" y="50"/>
      <point x="115" y="99"/>
      <point x="115" y="160" type="curve" smooth="yes"/>
      <point x="115" y="219"/>
      <point x="124" y="292"/>
      <point x="217" y="328" type="curve" smooth="yes"/>
      <point x="238" y="336" type="line"/>
      <point x="252" y="321" type="line" smooth="yes"/>
      <point x="310" y="259"/>
      <point x="359" y="208"/>
      <point x="394" y="158" type="curve" smooth="yes"/>
      <point x="409" y="138" type="line"/>
      <point x="400" y="129" type="line" smooth="yes"/>
      <point x="350" y="77"/>
      <point x="304" y="50"/>
    </contour>
    <contour>
      <point x="284" y="370" type="line"/>
      <point x="268" y="389" type="line" smooth="yes"/>
      <point x="217" y="449"/>
      <point x="203" y="471"/>
      <point x="203" y="514" type="curve" smooth="yes"/>
      <point x="203" y="553"/>
      <point x="239" y="583"/>
      <point x="279" y="583" type="curve" smooth="yes"/>
      <point x="325" y="583"/>
      <point x="347" y="534"/>
      <point x="347" y="484" type="curve" smooth="yes"/>
      <point x="347" y="441"/>
      <point x="334" y="395"/>
      <point x="297" y="377" type="curve" smooth="yes"/>
    </contour>
  </outline>
</glyph>
<glyph name="parenleft" format="1">
  <advance width="315"/>
  <unicode hex="0028"/>
  <outline>
    <contour>
      <point x="243" y="-211" type="curve" smooth="yes"/>
      <point x="251" y="-211"/>
      <point x="259" y="-207"/>
      <point x="259" y="-198" type="curve" smooth="yes"/>
      <point x="259" y="-196"/>
      <point x="250" y="-187"/>
      <point x="247" y="-184" type="curve" smooth="yes"/>
      <point x="160" y="-76"/>
      <point x="123" y="122"/>
      <point x="123" y="276" type="curve" smooth="yes"/>
      <point x="123" y="429"/>
      <point x="161" y="584"/>
      <point x="249" y="680" type="curve" smooth="yes"/>
      <point x="252" y="684"/>
      <point x="259" y="693"/>
      <point x="259" y="694" type="curve" smooth="yes"/>
      <point x="259" y="701"/>
      <point x="251" y="704"/>
      <point x="246" y="704" type="curve" smooth="yes"/>
      <point x="238" y="704"/>
      <point x="233" y="701"/>
      <point x="227" y="696" type="curve" smooth="yes"/>
      <point x="156" y="628"/>
      <point x="40" y="431"/>
      <point x="40" y="269" type="curve" smooth="yes"/>
      <point x="40" y="99"/>
      <point x="158" y="-133"/>
      <point x="229" y="-204" type="curve" smooth="yes"/>
      <point x="234" y="-209"/>
      <point x="237" y="-211"/>
    </contour>
  </outline>
</glyph>
<glyph name="plus" format="1">
  <advance width="590"/>
  <unicode hex="002B"/>
  <outline>
    <contour>
      <point x="284" y="-7" type="curve" smooth="yes"/>
      <point x="289" y="-7"/>
      <point x="311" y="-5"/>
      <point x="311" y="9" type="curve" smooth="yes"/>
      <point x="311" y="225" type="line" smooth="yes"/>
      <point x="311" y="227"/>
      <point x="312" y="228"/>
      <point x="313" y="228" type="curve" smooth="yes"/>
      <point x="510" y="228" type="line" smooth="yes"/>
      <point x="529" y="228"/>
      <point x="541" y="241"/>
      <point x="541" y="251" type="curve" smooth="yes"/>
      <point x="541" y="254"/>
      <point x="535" y="256"/>
      <point x="528" y="256" type="curve" smooth="yes"/>
      <point x="312" y="256" type="line" smooth="yes"/>
      <point x="311" y="256"/>
      <point x="311" y="257"/>
      <point x="311" y="260" type="curve" smooth="yes"/>
      <point x="311" y="467" type="line" smooth="yes"/>
      <point x="311" y="471"/>
      <point x="307" y="475"/>
      <point x="303" y="475" type="curve" smooth="yes"/>
      <point x="300" y="475"/>
      <point x="278" y="469"/>
      <point x="278" y="454" type="curve" smooth="yes"/>
      <point x="278" y="261" type="line" smooth="yes"/>
      <point x="278" y="257"/>
      <point x="277" y="256"/>
      <point x="274" y="256" type="curve" smooth="yes"/>
      <point x="73" y="256" type="line" smooth="yes"/>
      <point x="55" y="256"/>
      <point x="49" y="240"/>
      <point x="49" y="234" type="curve" smooth="yes"/>
      <point x="49" y="231"/>
      <point x="56" y="228"/>
      <point x="63" y="228" type="curve" smooth="yes"/>
      <point x="275" y="228" type="line" smooth="yes"/>
      <point x="277" y="228"/>
      <point x="278" y="227"/>
      <point x="278" y="225" type="curve" smooth="yes"/>
      <point x="278" y="2" type="line" smooth="yes"/>
      <point x="278" y="-3"/>
      <point x="281" y="-7"/>
    </contour>
  </outline>
</glyph>
<glyph name="comma" format="1">
  <advance width="230"/>
  <unicode hex="002C"/>
  <outline>
    <contour>
      <point x="38" y="-147" type="curve" smooth="yes"/>
      <point x="89" y="-147"/>
      <point x="182" y="-81"/>
      <point x="182" y="20" type="curve" smooth="yes"/>
      <point x="182" y="76"/>
      <point x="147" y="117"/>
      <point x="99" y="117" type="curve" smooth="yes"/>
      <point x="70" y="117"/>
      <point x="44" y="99"/>
      <point x="44" y="72" type="curve" smooth="yes"/>
      <point x="44" y="50"/>
      <point x="62" y="33"/>
      <point x="91" y="27" type="curve" smooth="yes"/>
      <point x="113" y="23"/>
      <point x="133" y="0"/>
      <point x="133" y="-24" type="curve" smooth="yes"/>
      <point x="133" y="-86"/>
      <point x="76" y="-127"/>
      <point x="33" y="-132" type="curve" smooth="yes"/>
      <point x="24" y="-133"/>
      <point x="20" y="-136"/>
      <point x="20" y="-140" type="curve" smooth="yes"/>
      <point x="20" y="-144"/>
      <point x="26" y="-147"/>
    </contour>
  </outline>
</glyph>
<glyph name="hyphen" format="1">
  <advance width="274"/>
  <unicode hex="002D"/>
  <outline>
    <contour>
      <point x="35" y="210" type="curve"/>
      <point x="100" y="215"/>
      <point x="162" y="222"/>
      <point x="224" y="228" type="curve" smooth="yes"/>
      <point x="240" y="230"/>
      <point x="245" y="245"/>
      <point x="245" y="259" type="curve" smooth="yes"/>
      <point x="245" y="262"/>
      <point x="241" y="263"/>
      <point x="237" y="263" type="curve"/>
      <point x="173" y="257"/>
      <point x="109" y="250"/>
      <point x="45" y="243" type="curve"/>
      <point x="35" y="243"/>
      <point x="29" y="226"/>
      <point x="29" y="213" type="curve" smooth="yes"/>
      <point x="29" y="211"/>
      <point x="30" y="210"/>
    </contour>
  </outline>
</glyph>
<glyph name="four" format="1">
  <advance width="480"/>
  <unicode hex="0034"/>
  <outline>
    <contour>
      <point x="210" y="-3" type="curve" smooth="yes"/>
      <point x="264" y="-3"/>
      <point x="274" y="2"/>
      <point x="325" y="2" type="curve" smooth="yes"/>
      <point x="372" y="2"/>
      <point x="381" y="-3"/>
      <point x="438" y="-3" type="curve" smooth="yes"/>
      <point x="446" y="-3"/>
      <point x="453" y="1"/>
      <point x="453" y="5" type="curve" smooth="yes"/>
      <point x="453" y="9"/>
      <point x="443" y="13"/>
      <point x="435" y="14" type="curve" smooth="yes"/>
      <point x="380" y="21"/>
      <point x="368" y="30"/>
      <point x="368" y="63" type="curve" smooth="yes"/>
      <point x="368" y="175" type="line" smooth="yes"/>
      <point x="368" y="176"/>
      <point x="376" y="180"/>
      <point x="381" y="181" type="curve"/>
      <point x="389" y="182"/>
      <point x="400" y="183"/>
      <point x="412" y="183" type="curve" smooth="yes"/>
      <point x="428" y="183"/>
      <point x="446" y="182"/>
      <point x="461" y="182" type="curve" smooth="yes"/>
      <point x="465" y="182"/>
      <point x="482" y="191"/>
      <point x="482" y="207" type="curve" smooth="yes"/>
      <point x="482" y="214"/>
      <point x="477" y="218"/>
      <point x="471" y="218" type="curve"/>
      <point x="449" y="217"/>
      <point x="431" y="216"/>
      <point x="412" y="216" type="curve" smooth="yes"/>
      <point x="400" y="216"/>
      <point x="387" y="216"/>
      <point x="372" y="217" type="curve"/>
      <point x="369" y="217"/>
      <point x="367" y="220"/>
      <point x="367" y="223" type="curve" smooth="yes"/>
      <point x="367" y="349" type="line" smooth="yes"/>
      <point x="367" y="391"/>
      <point x="367" y="413"/>
      <point x="352" y="413" type="curve" smooth="yes"/>
      <point x="343" y="413"/>
      <point x="316" y="411"/>
      <point x="296" y="400" type="curve"/>
      <point x="288" y="396"/>
      <point x="287" y="392"/>
      <point x="287" y="378" type="curve" smooth="yes"/>
      <point x="287" y="226" type="line" smooth="yes"/>
      <point x="287" y="222"/>
      <point x="280" y="218"/>
      <point x="275" y="218" type="curve" smooth="yes"/>
      <point x="77" y="218" type="line" smooth="yes"/>
      <point x="73" y="218"/>
      <point x="75" y="224"/>
      <point x="77" y="227" type="curve" smooth="yes"/>
      <point x="355" y="606" type="line"/>
      <point x="358" y="610"/>
      <point x="361" y="618"/>
      <point x="355" y="618" type="curve" smooth="yes"/>
      <point x="344" y="618" type="line" smooth="yes"/>
      <point x="337" y="618"/>
      <point x="328" y="606"/>
      <point x="320" y="594" type="curve" smooth="yes"/>
      <point x="54" y="227" type="line" smooth="yes"/>
      <point x="41" y="209"/>
      <point x="36" y="206"/>
      <point x="20" y="185" type="curve"/>
      <point x="19" y="184"/>
      <point x="19" y="183"/>
      <point x="19" y="182" type="curve" smooth="yes"/>
      <point x="19" y="178"/>
      <point x="24" y="172"/>
      <point x="29" y="172" type="curve" smooth="yes"/>
      <point x="119" y="173"/>
      <point x="190" y="179"/>
      <point x="272" y="179" type="curve" smooth="yes"/>
      <point x="273" y="179"/>
      <point x="287" y="176"/>
      <point x="287" y="170" type="curve" smooth="yes"/>
      <point x="287" y="61" type="line" smooth="yes"/>
      <point x="287" y="30"/>
      <point x="274" y="18"/>
      <point x="210" y="14" type="curve" smooth="yes"/>
      <point x="202" y="14"/>
      <point x="192" y="11"/>
      <point x="192" y="6" type="curve" smooth="yes"/>
      <point x="192" y="0"/>
      <point x="203" y="-3"/>
    </contour>
  </outline>
</glyph>
<glyph name="six" format="1">
  <advance width="480"/>
  <unicode hex="0036"/>
  <outline>
    <contour>
      <point x="252" y="-16" type="curve" smooth="yes"/>
      <point x="349" y="-16"/>
      <point x="457" y="62"/>
      <point x="457" y="183" type="curve" smooth="yes"/>
      <point x="457" y="252"/>
      <point x="395" y="302"/>
      <point x="326" y="302" type="curve" smooth="yes"/>
      <point x="295" y="302"/>
      <point x="258" y="288"/>
      <point x="234" y="275" type="curve" smooth="yes"/>
      <point x="222" y="268"/>
      <point x="212" y="261"/>
      <point x="202" y="252" type="curve" smooth="yes"/>
      <point x="194" y="245"/>
      <point x="196" y="237"/>
      <point x="209" y="243" type="curve" smooth="yes"/>
      <point x="231" y="256"/>
      <point x="260" y="265"/>
      <point x="288" y="265" type="curve" smooth="yes"/>
      <point x="341" y="265"/>
      <point x="379" y="205"/>
      <point x="379" y="135" type="curve" smooth="yes"/>
      <point x="379" y="46"/>
      <point x="329" y="5"/>
      <point x="270" y="6" type="curve" smooth="yes"/>
      <point x="209" y="7"/>
      <point x="135" y="67"/>
      <point x="133" y="177" type="curve" smooth="yes"/>
      <point x="132" y="290"/>
      <point x="184" y="407"/>
      <point x="247" y="477" type="curve" smooth="yes"/>
      <point x="294" y="532"/>
      <point x="355" y="568"/>
      <point x="429" y="600" type="curve" smooth="yes"/>
      <point x="436" y="603"/>
      <point x="448" y="606"/>
      <point x="453" y="614" type="curve" smooth="yes"/>
      <point x="455" y="617"/>
      <point x="447" y="623"/>
      <point x="435" y="619" type="curve" smooth="yes"/>
      <point x="341" y="592"/>
      <point x="264" y="540"/>
      <point x="212" y="498" type="curve" smooth="yes"/>
      <point x="127" y="434"/>
      <point x="47" y="326"/>
      <point x="47" y="186" type="curve" smooth="yes"/>
      <point x="47" y="51"/>
      <point x="149" y="-16"/>
    </contour>
  </outline>
</glyph>
<glyph name="seven" format="1">
  <advance width="480"/>
  <unicode hex="0037"/>
  <outline>
    <contour>
      <point x="111" y="-32" type="curve" smooth="yes"/>
      <point x="115" y="-32"/>
      <point x="124" y="-17"/>
      <point x="130" y="-6" type="curve" smooth="yes"/>
      <point x="431" y="516" type="line" smooth="yes"/>
      <point x="441" y="533"/>
      <point x="469" y="570"/>
      <point x="469" y="585" type="curve" smooth="yes"/>
      <point x="469" y="590"/>
      <point x="466" y="598"/>
      <point x="463" y="598" type="curve" smooth="yes"/>
      <point x="444" y="595"/>
      <point x="331" y="593"/>
      <point x="233" y="593" type="curve" smooth="yes"/>
      <point x="186" y="593"/>
      <point x="164" y="594"/>
      <point x="134" y="594" type="curve" smooth="yes"/>
      <point x="92" y="594"/>
      <point x="53" y="602"/>
      <point x="50" y="602" type="curve" smooth="yes"/>
      <point x="47" y="602"/>
      <point x="41" y="600"/>
      <point x="40" y="592" type="curve" smooth="yes"/>
      <point x="37" y="568"/>
      <point x="30" y="521"/>
      <point x="23" y="493" type="curve"/>
      <point x="22" y="488"/>
      <point x="20" y="478"/>
      <point x="20" y="472" type="curve" smooth="yes"/>
      <point x="20" y="466"/>
      <point x="21" y="458"/>
      <point x="25" y="458" type="curve" smooth="yes"/>
      <point x="31" y="458"/>
      <point x="37" y="471"/>
      <point x="40" y="482" type="curve" smooth="yes"/>
      <point x="55" y="518"/>
      <point x="76" y="527"/>
      <point x="102" y="527" type="curve" smooth="yes"/>
      <point x="428" y="527" type="line"/>
      <point x="433" y="561" type="line"/>
      <point x="126" y="32" type="line" smooth="yes"/>
      <point x="117" y="17"/>
      <point x="97" y="-13"/>
      <point x="97" y="-17" type="curve" smooth="yes"/>
      <point x="97" y="-26"/>
      <point x="101" y="-32"/>
    </contour>
  </outline>
</glyph>
<glyph name="A" format="1">
  <advance width="692"/>
  <unicode hex="0041"/>
  <outline>
    <contour>
      <point x="22" y="-5" type="curve" smooth="yes"/>
      <point x="49" y="-5"/>
      <point x="103" y="-2"/>
      <point x="147" y="-2" type="curve" smooth="yes"/>
      <point x="150" y="-2"/>
      <point x="187" y="-3"/>
      <point x="202" y="-3" type="curve" smooth="yes"/>
      <point x="216" y="-3"/>
      <point x="226" y="-1"/>
      <point x="226" y="4" type="curve" smooth="yes"/>
      <point x="226" y="9"/>
      <point x="216" y="13"/>
      <point x="198" y="16" type="curve" smooth="yes"/>
      <point x="164" y="21"/>
      <point x="142" y="36"/>
      <point x="142" y="61" type="curve" smooth="yes"/>
      <point x="142" y="86"/>
      <point x="191" y="205"/>
      <point x="200" y="230" type="curve" smooth="yes"/>
      <point x="205" y="243"/>
      <point x="211" y="247"/>
      <point x="217" y="247" type="curve" smooth="yes"/>
      <point x="420" y="247" type="line" smooth="yes"/>
      <point x="438" y="247"/>
      <point x="444" y="246"/>
      <point x="447" y="237" type="curve" smooth="yes"/>
      <point x="462" y="189"/>
      <point x="491" y="90"/>
      <point x="491" y="63" type="curve" smooth="yes"/>
      <point x="491" y="41"/>
      <point x="474" y="24"/>
      <point x="431" y="18" type="curve" smooth="yes"/>
      <point x="411" y="15"/>
      <point x="395" y="11"/>
      <point x="395" y="6" type="curve" smooth="yes"/>
      <point x="395" y="1"/>
      <point x="407" y="-2"/>
      <point x="424" y="-2" type="curve" smooth="yes"/>
      <point x="448" y="-2"/>
      <point x="490" y="-1"/>
      <point x="529" y="-1" type="curve" smooth="yes"/>
      <point x="574" y="-1"/>
      <point x="640" y="-5"/>
      <point x="668" y="-5" type="curve" smooth="yes"/>
      <point x="685" y="-5"/>
      <point x="697" y="-4"/>
      <point x="697" y="1" type="curve" smooth="yes"/>
      <point x="697" y="7"/>
      <point x="687" y="13"/>
      <point x="668" y="16" type="curve" smooth="yes"/>
      <point x="627" y="21"/>
      <point x="594" y="36"/>
      <point x="565" y="116" type="curve" smooth="yes"/>
      <point x="532" y="207"/>
      <point x="449" y="442"/>
      <point x="385" y="638" type="curve" smooth="yes"/>
      <point x="382" y="646"/>
      <point x="381" y="653"/>
      <point x="378" y="659" type="curve"/>
      <point x="377" y="661"/>
      <point x="374" y="661"/>
      <point x="373" y="660" type="curve"/>
      <point x="369" y="654"/>
      <point x="366" y="635"/>
      <point x="354" y="627" type="curve" smooth="yes"/>
      <point x="342" y="620"/>
      <point x="330" y="617"/>
      <point x="318" y="613" type="curve"/>
      <point x="316" y="593"/>
      <point x="311" y="575"/>
      <point x="304" y="557" type="curve" smooth="yes"/>
      <point x="236" y="379"/>
      <point x="188" y="257"/>
      <point x="116" y="96" type="curve" smooth="yes"/>
      <point x="88" y="33"/>
      <point x="60" y="21"/>
      <point x="30" y="16" type="curve" smooth="yes"/>
      <point x="8" y="13"/>
      <point x="-2" y="8"/>
      <point x="-2" y="3" type="curve" smooth="yes"/>
      <point x="-2" y="-2"/>
      <point x="8" y="-5"/>
    </contour>
    <contour>
      <point x="240" y="267" type="line" smooth="yes"/>
      <point x="227" y="267"/>
      <point x="219" y="267"/>
      <point x="219" y="274" type="curve" smooth="yes"/>
      <point x="219" y="276"/>
      <point x="220" y="279"/>
      <point x="221" y="281" type="curve"/>
      <point x="324" y="547" type="line" smooth="yes"/>
      <point x="328" y="558"/>
      <point x="330" y="564"/>
      <point x="332" y="564" type="curve" smooth="yes"/>
      <point x="335" y="564"/>
      <point x="337" y="558"/>
      <point x="341" y="546" type="curve" smooth="yes"/>
      <point x="429" y="281" type="line"/>
      <point x="430" y="278"/>
      <point x="431" y="274"/>
      <point x="431" y="272" type="curve" smooth="yes"/>
      <point x="431" y="267"/>
      <point x="427" y="267"/>
      <point x="417" y="267" type="curve" smooth="yes"/>
    </contour>
  </outline>
</glyph>
<glyph name="B" format="1">
  <advance width="587"/>
  <unicode hex="0042"/>
  <outline>
    <contour>
      <point x="48" y="-5" type="curve" smooth="yes"/>
      <point x="106" y="-5"/>
      <point x="126" y="0"/>
      <point x="178" y="0" type="curve" smooth="yes"/>
      <point x="218" y="0"/>
      <point x="255" y="-4"/>
      <point x="273" y="-4" type="curve" smooth="yes"/>
      <point x="349" y="-4"/>
      <point x="401" y="8"/>
      <point x="443" y="29" type="curve" smooth="yes"/>
      <point x="484" y="49"/>
      <point x="547" y="81"/>
      <point x="547" y="186" type="curve" smooth="yes"/>
      <point x="547" y="298"/>
      <point x="462" y="333"/>
      <point x="378" y="344" type="curve" smooth="yes"/>
      <point x="372" y="345"/>
      <point x="373" y="349"/>
      <point x="378" y="351" type="curve" smooth="yes"/>
      <point x="413" y="358"/>
      <point x="439" y="368"/>
      <point x="465" y="389" type="curve" smooth="yes"/>
      <point x="487" y="408"/>
      <point x="506" y="442"/>
      <point x="506" y="488" type="curve" smooth="yes"/>
      <point x="506" y="593"/>
      <point x="430" y="631"/>
      <point x="274" y="631" type="curve" smooth="yes"/>
      <point x="216" y="631"/>
      <point x="201" y="626"/>
      <point x="163" y="626" type="curve" smooth="yes"/>
      <point x="122" y="626"/>
      <point x="113" y="627"/>
      <point x="59" y="627" type="curve" smooth="yes"/>
      <point x="42" y="627"/>
      <point x="30" y="626"/>
      <point x="30" y="621" type="curve" smooth="yes"/>
      <point x="30" y="616"/>
      <point x="40" y="610"/>
      <point x="63" y="609" type="curve" smooth="yes"/>
      <point x="114" y="607"/>
      <point x="130" y="593"/>
      <point x="130" y="551" type="curve" smooth="yes"/>
      <point x="130" y="79" type="line" smooth="yes"/>
      <point x="130" y="32"/>
      <point x="107" y="19"/>
      <point x="52" y="13" type="curve" smooth="yes"/>
      <point x="29" y="11"/>
      <point x="19" y="7"/>
      <point x="19" y="2" type="curve" smooth="yes"/>
      <point x="19" y="-3"/>
      <point x="31" y="-5"/>
    </contour>
    <contour>
      <point x="287" y="17" type="curve" smooth="yes"/>
      <point x="236" y="17"/>
      <point x="208" y="34"/>
      <point x="208" y="93" type="curve" smooth="yes"/>
      <point x="208" y="296" type="line" smooth="yes"/>
      <point x="208" y="311"/>
      <point x="222" y="335"/>
      <point x="265" y="335" type="curve" smooth="yes"/>
      <point x="324" y="335"/>
      <point x="365" y="324"/>
      <point x="390" y="307" type="curve" smooth="yes"/>
      <point x="422" y="286"/>
      <point x="453" y="246"/>
      <point x="453" y="176" type="curve" smooth="yes"/>
      <point x="453" y="86"/>
      <point x="375" y="17"/>
    </contour>
    <contour>
      <point x="254" y="352" type="curve" smooth="yes"/>
      <point x="238" y="352"/>
      <point x="208" y="354"/>
      <point x="208" y="390" type="curve" smooth="yes"/>
      <point x="208" y="565" type="line" smooth="yes"/>
      <point x="208" y="598"/>
      <point x="219" y="614"/>
      <point x="274" y="614" type="curve" smooth="yes"/>
      <point x="397" y="614"/>
      <point x="420" y="537"/>
      <point x="420" y="478" type="curve" smooth="yes"/>
      <point x="420" y="421"/>
      <point x="399" y="391"/>
      <point x="379" y="377" type="curve" smooth="yes"/>
      <point x="345" y="356"/>
      <point x="302" y="352"/>
    </contour>
  </outline>
</glyph>
<glyph name="D" format="1">
  <advance width="754"/>
  <unicode hex="0044"/>
  <outline>
    <contour>
      <point x="371" y="-7" type="curve" smooth="yes"/>
      <point x="562" y="-7"/>
      <point x="719" y="144"/>
      <point x="719" y="329" type="curve" smooth="yes"/>
      <point x="719" y="497"/>
      <point x="611" y="634"/>
      <point x="340" y="634" type="curve" smooth="yes"/>
      <point x="313" y="634"/>
      <point x="212" y="626"/>
      <point x="169" y="626" type="curve" smooth="yes"/>
      <point x="121" y="626"/>
      <point x="109" y="628"/>
      <point x="58" y="628" type="curve" smooth="yes"/>
      <point x="41" y="628"/>
      <point x="29" y="625"/>
      <point x="29" y="620" type="curve" smooth="yes"/>
      <point x="29" y="613"/>
      <point x="39" y="611"/>
      <point x="62" y="609" type="curve" smooth="yes"/>
      <point x="118" y="603"/>
      <point x="129" y="592"/>
      <point x="129" y="549" type="curve" smooth="yes"/>
      <point x="129" y="93" type="line" smooth="yes"/>
      <point x="129" y="32"/>
      <point x="115" y="20"/>
      <point x="62" y="14" type="curve" smooth="yes"/>
      <point x="39" y="11"/>
      <point x="29" y="11"/>
      <point x="29" y="4" type="curve" smooth="yes"/>
      <point x="29" y="-3"/>
      <point x="41" y="-5"/>
      <point x="58" y="-5" type="curve" smooth="yes"/>
      <point x="111" y="-5"/>
      <point x="123" y="0"/>
      <point x="163" y="0" type="curve" smooth="yes"/>
      <point x="242" y="0"/>
      <point x="351" y="-7"/>
    </contour>
    <contour>
      <point x="359" y="16" type="curve" smooth="yes"/>
      <point x="284" y="16"/>
      <point x="209" y="29"/>
      <point x="209" y="113" type="curve" smooth="yes"/>
      <point x="209" y="551" type="line" smooth="yes"/>
      <point x="209" y="614"/>
      <point x="258" y="615"/>
      <point x="345" y="615" type="curve" smooth="yes"/>
      <point x="482" y="615"/>
      <point x="624" y="504"/>
      <point x="624" y="313" type="curve" smooth="yes"/>
      <point x="624" y="139"/>
      <point x="515" y="16"/>
    </contour>
  </outline>
</glyph>
<glyph name="J" format="1">
  <advance width="340"/>
  <unicode hex="004A"/>
  <outline>
    <contour>
      <point x="34" y="-200" type="curve" smooth="yes"/>
      <point x="73" y="-200"/>
      <point x="104" y="-178"/>
      <point x="131" y="-146" type="curve" smooth="yes"/>
      <point x="163" y="-108"/>
      <point x="210" y="-37"/>
      <point x="210" y="47" type="curve" smooth="yes"/>
      <point x="210" y="557" type="line" smooth="yes"/>
      <point x="210" y="589"/>
      <point x="224" y="600"/>
      <point x="274" y="606" type="curve" smooth="yes"/>
      <point x="297" y="609"/>
      <point x="307" y="614"/>
      <point x="307" y="620" type="curve" smooth="yes"/>
      <point x="307" y="625"/>
      <point x="295" y="627"/>
      <point x="278" y="627" type="curve" smooth="yes"/>
      <point x="224" y="627"/>
      <point x="217" y="625"/>
      <point x="176" y="625" type="curve" smooth="yes"/>
      <point x="130" y="625"/>
      <point x="113" y="627"/>
      <point x="59" y="627" type="curve" smooth="yes"/>
      <point x="42" y="627"/>
      <point x="30" y="625"/>
      <point x="30" y="620" type="curve" smooth="yes"/>
      <point x="30" y="614"/>
      <point x="41" y="609"/>
      <point x="63" y="606" type="curve" smooth="yes"/>
      <point x="113" y="600"/>
      <point x="130" y="589"/>
      <point x="130" y="557" type="curve" smooth="yes"/>
      <point x="130" y="-1" type="line" smooth="yes"/>
      <point x="130" y="-106"/>
      <point x="111" y="-172"/>
      <point x="64" y="-172" type="curve" smooth="yes"/>
      <point x="47" y="-172"/>
      <point x="34" y="-162"/>
      <point x="17" y="-135" type="curve" smooth="yes"/>
      <point x="3" y="-113"/>
      <point x="-13" y="-104"/>
      <point x="-30" y="-104" type="curve" smooth="yes"/>
      <point x="-45" y="-104"/>
      <point x="-69" y="-128"/>
      <point x="-69" y="-151" type="curve" smooth="yes"/>
      <point x="-69" y="-182"/>
      <point x="-34" y="-200"/>
    </contour>
  </outline>
</glyph>
<glyph name="M" format="1">
  <advance width="901"/>
  <unicode hex="004D"/>
  <outline>
    <contour>
      <point x="48" y="-5" type="curve" smooth="yes"/>
      <point x="102" y="-5"/>
      <point x="103" y="0"/>
      <point x="139" y="0" type="curve" smooth="yes"/>
      <point x="176" y="0"/>
      <point x="179" y="-5"/>
      <point x="233" y="-5" type="curve" smooth="yes"/>
      <point x="250" y="-5"/>
      <point x="262" y="-3"/>
      <point x="262" y="3" type="curve" smooth="yes"/>
      <point x="262" y="9"/>
      <point x="252" y="12"/>
      <point x="229" y="15" type="curve" smooth="yes"/>
      <point x="178" y="21"/>
      <point x="154" y="41"/>
      <point x="154" y="82" type="curve" smooth="yes"/>
      <point x="154" y="228"/>
      <point x="170" y="355"/>
      <point x="182" y="484" type="curve" smooth="yes"/>
      <point x="182" y="491"/>
      <point x="192" y="491"/>
      <point x="195" y="484" type="curve" smooth="yes"/>
      <point x="268" y="318"/>
      <point x="341" y="144"/>
      <point x="393" y="-4" type="curve" smooth="yes"/>
      <point x="396" y="-13"/>
      <point x="407" y="-12"/>
      <point x="411" y="-5" type="curve" smooth="yes"/>
      <point x="639" y="463" type="line" smooth="yes"/>
      <point x="646" y="476"/>
      <point x="654" y="477"/>
      <point x="656" y="463" type="curve"/>
      <point x="662" y="338"/>
      <point x="669" y="230"/>
      <point x="669" y="63" type="curve" smooth="yes"/>
      <point x="669" y="31"/>
      <point x="657" y="18"/>
      <point x="618" y="15" type="curve" smooth="yes"/>
      <point x="595" y="12"/>
      <point x="585" y="9"/>
      <point x="585" y="3" type="curve" smooth="yes"/>
      <point x="585" y="-3"/>
      <point x="597" y="-5"/>
      <point x="614" y="-5" type="curve" smooth="yes"/>
      <point x="668" y="-5"/>
      <point x="678" y="0"/>
      <point x="719" y="0" type="curve" smooth="yes"/>
      <point x="765" y="0"/>
      <point x="782" y="-5"/>
      <point x="836" y="-5" type="curve" smooth="yes"/>
      <point x="853" y="-5"/>
      <point x="865" y="-3"/>
      <point x="865" y="3" type="curve" smooth="yes"/>
      <point x="865" y="9"/>
      <point x="855" y="12"/>
      <point x="832" y="15" type="curve" smooth="yes"/>
      <point x="782" y="21"/>
      <point x="759" y="35"/>
      <point x="757" y="62" type="curve" smooth="yes"/>
      <point x="749" y="238"/>
      <point x="735" y="367"/>
      <point x="735" y="561" type="curve" smooth="yes"/>
      <point x="735" y="584"/>
      <point x="743" y="593"/>
      <point x="759" y="597" type="curve" smooth="yes"/>
      <point x="777" y="602"/>
      <point x="800" y="608"/>
      <point x="818" y="611" type="curve" smooth="yes"/>
      <point x="838" y="617"/>
      <point x="844" y="619"/>
      <point x="844" y="625" type="curve" smooth="yes"/>
      <point x="844" y="631"/>
      <point x="829" y="631"/>
      <point x="823" y="631" type="curve" smooth="yes"/>
      <point x="800" y="631"/>
      <point x="749" y="623"/>
      <point x="709" y="623" type="curve" smooth="yes"/>
      <point x="673" y="623" type="line" smooth="yes"/>
      <point x="668" y="623"/>
      <point x="665" y="618"/>
      <point x="663" y="610" type="curve" smooth="yes"/>
      <point x="659" y="589"/>
      <point x="649" y="542"/>
      <point x="643" y="519" type="curve"/>
      <point x="451" y="124" type="line" smooth="yes"/>
      <point x="446" y="114"/>
      <point x="436" y="117"/>
      <point x="432" y="127" type="curve" smooth="yes"/>
      <point x="266" y="530" type="line" smooth="yes"/>
      <point x="256" y="556"/>
      <point x="252" y="581"/>
      <point x="245" y="606" type="curve" smooth="yes"/>
      <point x="242" y="616"/>
      <point x="235" y="622"/>
      <point x="226" y="622" type="curve" smooth="yes"/>
      <point x="200" y="622"/>
      <point x="102" y="630"/>
      <point x="76" y="630" type="curve" smooth="yes"/>
      <point x="56" y="630"/>
      <point x="42" y="630"/>
      <point x="42" y="623" type="curve" smooth="yes"/>
      <point x="42" y="618"/>
      <point x="51" y="613"/>
      <point x="64" y="611" type="curve" smooth="yes"/>
      <point x="101" y="607"/>
      <point x="124" y="604"/>
      <point x="141" y="591" type="curve" smooth="yes"/>
      <point x="152" y="583"/>
      <point x="154" y="573"/>
      <point x="155" y="560" type="curve" smooth="yes"/>
      <point x="156" y="549"/>
      <point x="155" y="536"/>
      <point x="155" y="522" type="curve" smooth="yes"/>
      <point x="155" y="424"/>
      <point x="142" y="270"/>
      <point x="119" y="81" type="curve" smooth="yes"/>
      <point x="113" y="35"/>
      <point x="96" y="20"/>
      <point x="52" y="14" type="curve" smooth="yes"/>
      <point x="29" y="11"/>
      <point x="19" y="9"/>
      <point x="19" y="3" type="curve" smooth="yes"/>
      <point x="19" y="-3"/>
      <point x="31" y="-5"/>
    </contour>
  </outline>
</glyph>
<glyph name="N" format="1">
  <advance width="792"/>
  <unicode hex="004E"/>
  <outline>
    <contour>
      <point x="668" y="-17" type="curve" smooth="yes"/>
      <point x="678" y="-17"/>
      <point x="689" y="-13"/>
      <point x="689" y="8" type="curve" smooth="yes"/>
      <point x="689" y="21"/>
      <point x="684" y="57"/>
      <point x="684" y="105" type="curve" smooth="yes"/>
      <point x="684" y="286"/>
      <point x="685" y="484"/>
      <point x="685" y="550" type="curve" smooth="yes"/>
      <point x="687" y="589"/>
      <point x="703" y="599"/>
      <point x="749" y="607" type="curve" smooth="yes"/>
      <point x="772" y="611"/>
      <point x="782" y="615"/>
      <point x="782" y="620" type="curve" smooth="yes"/>
      <point x="782" y="626"/>
      <point x="771" y="628"/>
      <point x="755" y="628" type="curve" smooth="yes"/>
      <point x="701" y="628"/>
      <point x="696" y="624"/>
      <point x="660" y="624" type="curve" smooth="yes"/>
      <point x="631" y="624"/>
      <point x="621" y="626"/>
      <point x="587" y="626" type="curve" smooth="yes"/>
      <point x="571" y="626"/>
      <point x="554" y="624"/>
      <point x="554" y="619" type="curve" smooth="yes"/>
      <point x="554" y="613"/>
      <point x="570" y="610"/>
      <point x="594" y="606" type="curve" smooth="yes"/>
      <point x="636" y="601"/>
      <point x="657" y="584"/>
      <point x="658" y="549" type="curve"/>
      <point x="658" y="388"/>
      <point x="657" y="201"/>
      <point x="656" y="133" type="curve"/>
      <point x="655" y="118"/>
      <point x="651" y="112"/>
      <point x="646" y="112" type="curve" smooth="yes"/>
      <point x="638" y="112"/>
      <point x="626" y="125"/>
      <point x="621" y="131" type="curve" smooth="yes"/>
      <point x="601" y="154"/>
      <point x="233" y="585"/>
      <point x="214" y="611" type="curve"/>
      <point x="207" y="620"/>
      <point x="201" y="628"/>
      <point x="189" y="628" type="curve" smooth="yes"/>
      <point x="117" y="628"/>
      <point x="113" y="631"/>
      <point x="35" y="633" type="curve" smooth="yes"/>
      <point x="28" y="633"/>
      <point x="12" y="631"/>
      <point x="12" y="625" type="curve" smooth="yes"/>
      <point x="12" y="617"/>
      <point x="32" y="611"/>
      <point x="41" y="610" type="curve" smooth="yes"/>
      <point x="103" y="600"/>
      <point x="142" y="578"/>
      <point x="142" y="517" type="curve" smooth="yes"/>
      <point x="142" y="327"/>
      <point x="132" y="177"/>
      <point x="126" y="85" type="curve" smooth="yes"/>
      <point x="123" y="42"/>
      <point x="107" y="23"/>
      <point x="66" y="15" type="curve" smooth="yes"/>
      <point x="43" y="10"/>
      <point x="33" y="8"/>
      <point x="33" y="2" type="curve" smooth="yes"/>
      <point x="33" y="-3"/>
      <point x="44" y="-5"/>
      <point x="60" y="-5" type="curve" smooth="yes"/>
      <point x="111" y="-5"/>
      <point x="112" y="0"/>
      <point x="145" y="0" type="curve" smooth="yes"/>
      <point x="180" y="0"/>
      <point x="182" y="-5"/>
      <point x="233" y="-5" type="curve" smooth="yes"/>
      <point x="249" y="-5"/>
      <point x="260" y="-3"/>
      <point x="260" y="2" type="curve" smooth="yes"/>
      <point x="260" y="8"/>
      <point x="249" y="11"/>
      <point x="225" y="14" type="curve" smooth="yes"/>
      <point x="172" y="21"/>
      <point x="159" y="44"/>
      <point x="159" y="80" type="curve" smooth="yes"/>
      <point x="159" y="217"/>
      <point x="167" y="388"/>
      <point x="167" y="481" type="curve" smooth="yes"/>
      <point x="167" y="489"/>
      <point x="170" y="502"/>
      <point x="177" y="502" type="curve" smooth="yes"/>
      <point x="182" y="502"/>
      <point x="188" y="498"/>
      <point x="198" y="486" type="curve" smooth="yes"/>
      <point x="221" y="459"/>
      <point x="564" y="67"/>
      <point x="582" y="43" type="curve" smooth="yes"/>
      <point x="614" y="1"/>
      <point x="656" y="-17"/>
    </contour>
  </outline>
</glyph>
<glyph name="O" format="1">
  <advance width="763"/>
  <unicode hex="004F"/>
  <outline>
    <contour>
      <point x="377" y="-14" type="curve" smooth="yes"/>
      <point x="599" y="-14"/>
      <point x="718" y="149"/>
      <point x="718" y="322" type="curve" smooth="yes"/>
      <point x="718" y="512"/>
      <point x="562" y="639"/>
      <point x="386" y="639" type="curve" smooth="yes"/>
      <point x="164" y="639"/>
      <point x="45" y="476"/>
      <point x="45" y="303" type="curve" smooth="yes"/>
      <point x="45" y="113"/>
      <point x="201" y="-14"/>
    </contour>
    <contour>
      <point x="392" y="9" type="curve" smooth="yes"/>
      <point x="225" y="9"/>
      <point x="141" y="164"/>
      <point x="141" y="353" type="curve" smooth="yes"/>
      <point x="141" y="512"/>
      <point x="219" y="614"/>
      <point x="370" y="614" type="curve" smooth="yes"/>
      <point x="537" y="614"/>
      <point x="622" y="461"/>
      <point x="622" y="273" type="curve" smooth="yes"/>
      <point x="622" y="114"/>
      <point x="545" y="9"/>
    </contour>
  </outline>
</glyph>
<glyph name="P" format="1">
  <advance width="552"/>
  <unicode hex="0050"/>
  <outline>
    <contour>
      <point x="53" y="-5" type="curve" smooth="yes"/>
      <point x="107" y="-5"/>
      <point x="132" y="2"/>
      <point x="183" y="2" type="curve" smooth="yes"/>
      <point x="221" y="2"/>
      <point x="227" y="-5"/>
      <point x="281" y="-5" type="curve" smooth="yes"/>
      <point x="298" y="-5"/>
      <point x="310" y="-2"/>
      <point x="310" y="3" type="curve" smooth="yes"/>
      <point x="310" y="9"/>
      <point x="300" y="13"/>
      <point x="277" y="15" type="curve" smooth="yes"/>
      <point x="219" y="20"/>
      <point x="210" y="41"/>
      <point x="210" y="101" type="curve" smooth="yes"/>
      <point x="210" y="571" type="line" smooth="yes"/>
      <point x="210" y="603"/>
      <point x="236" y="615"/>
      <point x="274" y="615" type="curve" smooth="yes"/>
      <point x="368" y="615"/>
      <point x="441" y="570"/>
      <point x="441" y="454" type="curve" smooth="yes"/>
      <point x="441" y="333"/>
      <point x="400" y="262"/>
      <point x="315" y="262" type="curve" smooth="yes"/>
      <point x="293" y="262"/>
      <point x="280" y="264"/>
      <point x="274" y="264" type="curve" smooth="yes"/>
      <point x="267" y="264"/>
      <point x="258" y="259"/>
      <point x="258" y="255" type="curve" smooth="yes"/>
      <point x="258" y="250"/>
      <point x="274" y="244"/>
      <point x="303" y="244" type="curve" smooth="yes"/>
      <point x="456" y="244"/>
      <point x="527" y="343"/>
      <point x="527" y="461" type="curve" smooth="yes"/>
      <point x="527" y="569"/>
      <point x="426" y="633"/>
      <point x="274" y="633" type="curve" smooth="yes"/>
      <point x="246" y="633"/>
      <point x="203" y="627"/>
      <point x="163" y="627" type="curve" smooth="yes"/>
      <point x="122" y="627"/>
      <point x="119" y="628"/>
      <point x="65" y="628" type="curve" smooth="yes"/>
      <point x="48" y="628"/>
      <point x="36" y="625"/>
      <point x="36" y="621" type="curve" smooth="yes"/>
      <point x="36" y="616"/>
      <point x="46" y="611"/>
      <point x="69" y="609" type="curve" smooth="yes"/>
      <point x="122" y="604"/>
      <point x="130" y="585"/>
      <point x="130" y="525" type="curve" smooth="yes"/>
      <point x="130" y="90" type="line" smooth="yes"/>
      <point x="130" y="30"/>
      <point x="114" y="18"/>
      <point x="57" y="14" type="curve" smooth="yes"/>
      <point x="34" y="12"/>
      <point x="24" y="9"/>
      <point x="24" y="3" type="curve" smooth="yes"/>
      <point x="24" y="-2"/>
      <point x="36" y="-5"/>
    </contour>
  </outline>
</glyph>
<glyph name="Q" format="1">
  <advance width="763"/>
  <unicode hex="0051"/>
  <outline>
    <contour>
      <point x="744" y="-248" type="curve" smooth="yes"/>
      <point x="781" y="-248"/>
      <point x="823" y="-238"/>
      <point x="861" y="-215" type="curve" smooth="yes"/>
      <point x="876" y="-206"/>
      <point x="879" y="-201"/>
      <point x="879" y="-189" type="curve" smooth="yes"/>
      <point x="879" y="-183"/>
      <point x="874" y="-181"/>
      <point x="868" y="-181" type="curve" smooth="yes"/>
      <point x="862" y="-181"/>
      <point x="855" y="-183"/>
      <point x="849" y="-185" type="curve"/>
      <point x="840" y="-189"/>
      <point x="817" y="-192"/>
      <point x="793" y="-192" type="curve" smooth="yes"/>
      <point x="715" y="-192"/>
      <point x="665" y="-177"/>
      <point x="598" y="-129" type="curve" smooth="yes"/>
      <point x="548" y="-93"/>
      <point x="510" y="-60"/>
      <point x="471" y="-18" type="curve"/>
      <point x="468" y="-15"/>
      <point x="467" y="-12"/>
      <point x="467" y="-9" type="curve" smooth="yes"/>
      <point x="467" y="-7"/>
      <point x="468" y="-4"/>
      <point x="475" y="-2" type="curve" smooth="yes"/>
      <point x="634" y="38"/>
      <point x="718" y="176"/>
      <point x="718" y="322" type="curve" smooth="yes"/>
      <point x="718" y="512"/>
      <point x="562" y="639"/>
      <point x="386" y="639" type="curve" smooth="yes"/>
      <point x="164" y="639"/>
      <point x="45" y="476"/>
      <point x="45" y="303" type="curve" smooth="yes"/>
      <point x="45" y="146"/>
      <point x="141" y="58"/>
      <point x="251" y="9" type="curve" smooth="yes"/>
      <point x="281" y="-4"/>
      <point x="320" y="-17"/>
      <point x="367" y="-55" type="curve" smooth="yes"/>
      <point x="432" y="-109"/>
      <point x="471" y="-136"/>
      <point x="523" y="-173" type="curve" smooth="yes"/>
      <point x="587" y="-219"/>
      <point x="648" y="-248"/>
    </contour>
    <contour>
      <point x="392" y="9" type="curve" smooth="yes"/>
      <point x="225" y="9"/>
      <point x="141" y="164"/>
      <point x="141" y="353" type="curve" smooth="yes"/>
      <point x="141" y="512"/>
      <point x="219" y="614"/>
      <point x="370" y="614" type="curve" smooth="yes"/>
      <point x="537" y="614"/>
      <point x="622" y="461"/>
      <point x="622" y="273" type="curve" smooth="yes"/>
      <point x="622" y="114"/>
      <point x="545" y="9"/>
    </contour>
  </outline>
</glyph>
<glyph name="R" format="1">
  <advance width="713"/>
  <unicode hex="0052"/>
  <outline>
    <contour>
      <point x="637" y="-21" type="curve" smooth="yes"/>
      <point x="662" y="-21"/>
      <point x="718" y="-17"/>
      <point x="718" y="2" type="curve" smooth="yes"/>
      <point x="718" y="7"/>
      <point x="713" y="8"/>
      <point x="703" y="8" type="curve" smooth="yes"/>
      <point x="664" y="8"/>
      <point x="639" y="15"/>
      <point x="606" y="41" type="curve" smooth="yes"/>
      <point x="501" y="128"/>
      <point x="445" y="213"/>
      <point x="383" y="303" type="curve" smooth="yes"/>
      <point x="379" y="309"/>
      <point x="378" y="314"/>
      <point x="383" y="316" type="curve"/>
      <point x="438" y="343"/>
      <point x="503" y="388"/>
      <point x="503" y="474" type="curve" smooth="yes"/>
      <point x="503" y="579"/>
      <point x="424" y="632"/>
      <point x="278" y="632" type="curve" smooth="yes"/>
      <point x="220" y="632"/>
      <point x="201" y="627"/>
      <point x="163" y="627" type="curve" smooth="yes"/>
      <point x="122" y="627"/>
      <point x="119" y="628"/>
      <point x="65" y="628" type="curve" smooth="yes"/>
      <point x="48" y="628"/>
      <point x="36" y="626"/>
      <point x="36" y="621" type="curve" smooth="yes"/>
      <point x="36" y="614"/>
      <point x="46" y="608"/>
      <point x="69" y="607" type="curve" smooth="yes"/>
      <point x="126" y="603"/>
      <point x="130" y="593"/>
      <point x="130" y="524" type="curve" smooth="yes"/>
      <point x="130" y="79" type="line" smooth="yes"/>
      <point x="130" y="33"/>
      <point x="113" y="21"/>
      <point x="57" y="15" type="curve" smooth="yes"/>
      <point x="34" y="12"/>
      <point x="24" y="9"/>
      <point x="24" y="2" type="curve" smooth="yes"/>
      <point x="24" y="-3"/>
      <point x="36" y="-5"/>
      <point x="53" y="-5" type="curve" smooth="yes"/>
      <point x="107" y="-5"/>
      <point x="132" y="2"/>
      <point x="183" y="2" type="curve" smooth="yes"/>
      <point x="221" y="2"/>
      <point x="227" y="-5"/>
      <point x="281" y="-5" type="curve" smooth="yes"/>
      <point x="298" y="-5"/>
      <point x="310" y="-3"/>
      <point x="310" y="2" type="curve" smooth="yes"/>
      <point x="310" y="9"/>
      <point x="300" y="12"/>
      <point x="277" y="15" type="curve" smooth="yes"/>
      <point x="225" y="21"/>
      <point x="210" y="41"/>
      <point x="210" y="82" type="curve" smooth="yes"/>
      <point x="210" y="274" type="line" smooth="yes"/>
      <point x="210" y="286"/>
      <point x="214" y="295"/>
      <point x="225" y="294" type="curve" smooth="yes"/>
      <point x="243" y="292"/>
      <point x="275" y="287"/>
      <point x="304" y="273" type="curve" smooth="yes"/>
      <point x="324" y="263"/>
      <point x="336" y="252"/>
      <point x="348" y="234" type="curve" smooth="yes"/>
      <point x="416" y="128"/>
      <point x="449" y="89"/>
      <point x="498" y="32" type="curve" smooth="yes"/>
      <point x="534" y="-10"/>
      <point x="580" y="-21"/>
    </contour>
    <contour>
      <point x="263" y="309" type="curve" smooth="yes"/>
      <point x="230" y="309"/>
      <point x="210" y="311"/>
      <point x="210" y="346" type="curve" smooth="yes"/>
      <point x="210" y="426"/>
      <point x="211" y="482"/>
      <point x="212" y="516" type="curve" smooth="yes"/>
      <point x="215" y="585"/>
      <point x="223" y="609"/>
      <point x="266" y="609" type="curve" smooth="yes"/>
      <point x="392" y="609"/>
      <point x="413" y="540"/>
      <point x="413" y="458" type="curve" smooth="yes"/>
      <point x="413" y="372"/>
      <point x="372" y="309"/>
    </contour>
  </outline>
</glyph>
<glyph name="T" format="1">
  <advance width="670"/>
  <unicode hex="0054"/>
  <outline>
    <contour>
      <point x="214" y="-5" type="curve" smooth="yes"/>
      <point x="268" y="-5"/>
      <point x="292" y="-2"/>
      <point x="342" y="-2" type="curve" smooth="yes"/>
      <point x="388" y="-2"/>
      <point x="405" y="-5"/>
      <point x="459" y="-5" type="curve" smooth="yes"/>
      <point x="476" y="-5"/>
      <point x="488" y="-3"/>
      <point x="488" y="2" type="curve" smooth="yes"/>
      <point x="488" y="8"/>
      <point x="478" y="11"/>
      <point x="455" y="14" type="curve" smooth="yes"/>
      <point x="405" y="20"/>
      <point x="376" y="34"/>
      <point x="376" y="76" type="curve" smooth="yes"/>
      <point x="376" y="484" type="line" smooth="yes"/>
      <point x="376" y="594"/>
      <point x="381" y="599"/>
      <point x="426" y="599" type="curve" smooth="yes"/>
      <point x="536" y="599" type="line" smooth="yes"/>
      <point x="596" y="599"/>
      <point x="617" y="578"/>
      <point x="622" y="546" type="curve" smooth="yes"/>
      <point x="626" y="516"/>
      <point x="630" y="499"/>
      <point x="639" y="499" type="curve" smooth="yes"/>
      <point x="649" y="499"/>
      <point x="654" y="519"/>
      <point x="654" y="531" type="curve" smooth="yes"/>
      <point x="654" y="543" type="line" smooth="yes"/>
      <point x="654" y="569"/>
      <point x="658" y="565"/>
      <point x="664" y="602" type="curve" smooth="yes"/>
      <point x="665" y="608"/>
      <point x="668" y="623"/>
      <point x="668" y="630" type="curve" smooth="yes"/>
      <point x="668" y="640"/>
      <point x="665" y="653"/>
      <point x="661" y="653" type="curve" smooth="yes"/>
      <point x="646" y="653"/>
      <point x="640" y="641"/>
      <point x="625" y="633" type="curve" smooth="yes"/>
      <point x="604" y="623"/>
      <point x="579" y="618"/>
      <point x="537" y="618" type="curve" smooth="yes"/>
      <point x="164" y="618" type="line" smooth="yes"/>
      <point x="139" y="618"/>
      <point x="109" y="624"/>
      <point x="102" y="638" type="curve" smooth="yes"/>
      <point x="97" y="649"/>
      <point x="84" y="670"/>
      <point x="80" y="670" type="curve" smooth="yes"/>
      <point x="75" y="670"/>
      <point x="66" y="669"/>
      <point x="63" y="647" type="curve" smooth="yes"/>
      <point x="57" y="605"/>
      <point x="51" y="580"/>
      <point x="32" y="542" type="curve" smooth="yes"/>
      <point x="29" y="536"/>
      <point x="27" y="528"/>
      <point x="27" y="522" type="curve" smooth="yes"/>
      <point x="27" y="515"/>
      <point x="31" y="509"/>
      <point x="35" y="509" type="curve" smooth="yes"/>
      <point x="49" y="509"/>
      <point x="67" y="533"/>
      <point x="77" y="553" type="curve" smooth="yes"/>
      <point x="92" y="583"/>
      <point x="122" y="599"/>
      <point x="153" y="599" type="curve" smooth="yes"/>
      <point x="204" y="599" type="line" smooth="yes"/>
      <point x="238" y="599"/>
      <point x="256" y="599"/>
      <point x="275" y="595" type="curve" smooth="yes"/>
      <point x="291" y="592"/>
      <point x="296" y="570"/>
      <point x="296" y="479" type="curve" smooth="yes"/>
      <point x="296" y="76" type="line" smooth="yes"/>
      <point x="296" y="34"/>
      <point x="268" y="20"/>
      <point x="218" y="14" type="curve" smooth="yes"/>
      <point x="195" y="11"/>
      <point x="185" y="8"/>
      <point x="185" y="2" type="curve" smooth="yes"/>
      <point x="185" y="-3"/>
      <point x="197" y="-5"/>
    </contour>
  </outline>
</glyph>
<glyph name="W" format="1">
  <advance width="916"/>
  <unicode hex="0057"/>
  <outline>
    <contour>
      <point x="335" y="-16" type="curve" smooth="yes"/>
      <point x="343" y="-16"/>
      <point x="350" y="0"/>
      <point x="355" y="14" type="curve" smooth="yes"/>
      <point x="397" y="126"/>
      <point x="424" y="192"/>
      <point x="470" y="301" type="curve" smooth="yes"/>
      <point x="475" y="313"/>
      <point x="477" y="315"/>
      <point x="481" y="306" type="curve"/>
      <point x="528" y="194"/>
      <point x="552" y="120"/>
      <point x="605" y="6" type="curve" smooth="yes"/>
      <point x="609" y="-3"/>
      <point x="617" y="-12"/>
      <point x="622" y="-12" type="curve" smooth="yes"/>
      <point x="629" y="-12"/>
      <point x="636" y="4"/>
      <point x="638" y="10" type="curve" smooth="yes"/>
      <point x="817" y="539" type="line"/>
      <point x="829" y="574"/>
      <point x="850" y="603"/>
      <point x="892" y="609" type="curve" smooth="yes"/>
      <point x="913" y="612"/>
      <point x="921" y="616"/>
      <point x="921" y="621" type="curve" smooth="yes"/>
      <point x="921" y="626"/>
      <point x="909" y="628"/>
      <point x="892" y="628" type="curve" smooth="yes"/>
      <point x="867" y="628"/>
      <point x="844" y="626"/>
      <point x="811" y="626" type="curve" smooth="yes"/>
      <point x="789" y="626"/>
      <point x="771" y="627"/>
      <point x="749" y="627" type="curve" smooth="yes"/>
      <point x="734" y="627"/>
      <point x="724" y="625"/>
      <point x="724" y="620" type="curve" smooth="yes"/>
      <point x="724" y="615"/>
      <point x="740" y="611"/>
      <point x="752" y="608" type="curve" smooth="yes"/>
      <point x="780" y="604"/>
      <point x="788" y="594"/>
      <point x="789" y="571" type="curve" smooth="yes"/>
      <point x="789" y="563"/>
      <point x="788" y="553"/>
      <point x="785" y="543" type="curve"/>
      <point x="730" y="353"/>
      <point x="683" y="217"/>
      <point x="651" y="131" type="curve"/>
      <point x="648" y="122"/>
      <point x="643" y="118"/>
      <point x="640" y="125" type="curve" smooth="yes"/>
      <point x="529" y="397" type="line"/>
      <point x="526" y="404"/>
      <point x="531" y="424"/>
      <point x="535" y="434" type="curve" smooth="yes"/>
      <point x="552" y="475"/>
      <point x="579" y="536"/>
      <point x="588" y="554" type="curve" smooth="yes"/>
      <point x="606" y="590"/>
      <point x="614" y="602"/>
      <point x="658" y="608" type="curve" smooth="yes"/>
      <point x="680" y="611"/>
      <point x="691" y="615"/>
      <point x="691" y="621" type="curve" smooth="yes"/>
      <point x="691" y="626"/>
      <point x="679" y="628"/>
      <point x="662" y="628" type="curve" smooth="yes"/>
      <point x="638" y="628"/>
      <point x="626" y="625"/>
      <point x="603" y="625" type="curve" smooth="yes"/>
      <point x="584" y="625"/>
      <point x="580" y="627"/>
      <point x="551" y="627" type="curve" smooth="yes"/>
      <point x="534" y="627"/>
      <point x="522" y="626"/>
      <point x="522" y="618" type="curve" smooth="yes"/>
      <point x="522" y="605"/>
      <point x="570" y="610"/>
      <point x="570" y="585" type="curve" smooth="yes"/>
      <point x="570" y="580"/>
      <point x="569" y="574"/>
      <point x="567" y="569" type="curve"/>
      <point x="561" y="553"/>
      <point x="535" y="483"/>
      <point x="521" y="449" type="curve" smooth="yes"/>
      <point x="514" y="431"/>
      <point x="510" y="434"/>
      <point x="503" y="449" type="curve" smooth="yes"/>
      <point x="495" y="467"/>
      <point x="461" y="547"/>
      <point x="450" y="580" type="curve" smooth="yes"/>
      <point x="449" y="583"/>
      <point x="448" y="587"/>
      <point x="448" y="589" type="curve" smooth="yes"/>
      <point x="448" y="610"/>
      <point x="494" y="610"/>
      <point x="494" y="620" type="curve" smooth="yes"/>
      <point x="494" y="625"/>
      <point x="480" y="627"/>
      <point x="459" y="627" type="curve" smooth="yes"/>
      <point x="445" y="627"/>
      <point x="418" y="625"/>
      <point x="388" y="625" type="curve" smooth="yes"/>
      <point x="352" y="625"/>
      <point x="325" y="628"/>
      <point x="290" y="628" type="curve" smooth="yes"/>
      <point x="275" y="628"/>
      <point x="265" y="626"/>
      <point x="265" y="621" type="curve" smooth="yes"/>
      <point x="265" y="615"/>
      <point x="274" y="611"/>
      <point x="294" y="607" type="curve" smooth="yes"/>
      <point x="341" y="602"/>
      <point x="364" y="583"/>
      <point x="378" y="552" type="curve" smooth="yes"/>
      <point x="453" y="369" type="line" smooth="yes"/>
      <point x="458" y="356"/>
      <point x="461" y="349"/>
      <point x="461" y="341" type="curve" smooth="yes"/>
      <point x="461" y="335"/>
      <point x="459" y="329"/>
      <point x="455" y="319" type="curve" smooth="yes"/>
      <point x="380" y="132" type="line"/>
      <point x="376" y="121"/>
      <point x="372" y="118"/>
      <point x="365" y="133" type="curve" smooth="yes"/>
      <point x="296" y="277"/>
      <point x="254" y="372"/>
      <point x="185" y="546" type="curve"/>
      <point x="183" y="553"/>
      <point x="177" y="570"/>
      <point x="177" y="583" type="curve" smooth="yes"/>
      <point x="177" y="594"/>
      <point x="180" y="604"/>
      <point x="200" y="606" type="curve" smooth="yes"/>
      <point x="228" y="610"/>
      <point x="240" y="613"/>
      <point x="240" y="619" type="curve" smooth="yes"/>
      <point x="240" y="625"/>
      <point x="228" y="627"/>
      <point x="211" y="627" type="curve" smooth="yes"/>
      <point x="191" y="627"/>
      <point x="155" y="625"/>
      <point x="118" y="625" type="curve" smooth="yes"/>
      <point x="84" y="625"/>
      <point x="60" y="628"/>
      <point x="25" y="628" type="curve" smooth="yes"/>
      <point x="10" y="628"/>
      <point x="0" y="626"/>
      <point x="0" y="621" type="curve" smooth="yes"/>
      <point x="0" y="615"/>
      <point x="9" y="612"/>
      <point x="28" y="608" type="curve" smooth="yes"/>
      <point x="57" y="601"/>
      <point x="78" y="592"/>
      <point x="90" y="567" type="curve"/>
      <point x="321" y="11" type="line" smooth="yes"/>
      <point x="326" y="-2"/>
      <point x="332" y="-16"/>
    </contour>
  </outline>
</glyph>
<glyph name="Y" format="1">
  <advance width="578"/>
  <unicode hex="0059"/>
  <outline>
    <contour>
      <point x="182" y="-5" type="curve" smooth="yes"/>
      <point x="236" y="-5"/>
      <point x="260" y="-2"/>
      <point x="310" y="-2" type="curve" smooth="yes"/>
      <point x="356" y="-2"/>
      <point x="373" y="-5"/>
      <point x="427" y="-5" type="curve" smooth="yes"/>
      <point x="444" y="-5"/>
      <point x="456" y="-3"/>
      <point x="456" y="2" type="curve" smooth="yes"/>
      <point x="456" y="7"/>
      <point x="446" y="10"/>
      <point x="423" y="13" type="curve" smooth="yes"/>
      <point x="373" y="18"/>
      <point x="344" y="36"/>
      <point x="344" y="71" type="curve" smooth="yes"/>
      <point x="344" y="262" type="line" smooth="yes"/>
      <point x="344" y="300"/>
      <point x="343" y="307"/>
      <point x="369" y="349" type="curve" smooth="yes"/>
      <point x="414" y="419"/>
      <point x="429" y="444"/>
      <point x="479" y="522" type="curve" smooth="yes"/>
      <point x="513" y="575"/>
      <point x="533" y="597"/>
      <point x="569" y="605" type="curve" smooth="yes"/>
      <point x="595" y="611"/>
      <point x="621" y="615"/>
      <point x="621" y="621" type="curve" smooth="yes"/>
      <point x="621" y="626"/>
      <point x="609" y="628"/>
      <point x="592" y="628" type="curve" smooth="yes"/>
      <point x="569" y="628"/>
      <point x="529" y="626"/>
      <point x="488" y="626" type="curve" smooth="yes"/>
      <point x="459" y="626"/>
      <point x="443" y="627"/>
      <point x="413" y="627" type="curve" smooth="yes"/>
      <point x="396" y="627"/>
      <point x="384" y="625"/>
      <point x="384" y="620" type="curve" smooth="yes"/>
      <point x="384" y="614"/>
      <point x="402" y="609"/>
      <point x="416" y="607" type="curve" smooth="yes"/>
      <point x="449" y="605"/>
      <point x="470" y="595"/>
      <point x="470" y="571" type="curve" smooth="yes"/>
      <point x="470" y="561"/>
      <point x="465" y="547"/>
      <point x="455" y="530" type="curve" smooth="yes"/>
      <point x="422" y="474"/>
      <point x="392" y="421"/>
      <point x="362" y="376" type="curve" smooth="yes"/>
      <point x="344" y="349"/>
      <point x="336" y="331"/>
      <point x="328" y="331" type="curve" smooth="yes"/>
      <point x="322" y="331"/>
      <point x="314" y="343"/>
      <point x="300" y="368" type="curve" smooth="yes"/>
      <point x="192" y="558" type="line" smooth="yes"/>
      <point x="184" y="570"/>
      <point x="179" y="580"/>
      <point x="179" y="588" type="curve" smooth="yes"/>
      <point x="179" y="600"/>
      <point x="196" y="605"/>
      <point x="222" y="607" type="curve" smooth="yes"/>
      <point x="244" y="610"/>
      <point x="255" y="614"/>
      <point x="255" y="620" type="curve" smooth="yes"/>
      <point x="255" y="625"/>
      <point x="243" y="626"/>
      <point x="226" y="626" type="curve" smooth="yes"/>
      <point x="205" y="626"/>
      <point x="177" y="625"/>
      <point x="146" y="625" type="curve" smooth="yes"/>
      <point x="100" y="625"/>
      <point x="59" y="627"/>
      <point x="29" y="627" type="curve" smooth="yes"/>
      <point x="12" y="627"/>
      <point x="0" y="625"/>
      <point x="0" y="620" type="curve" smooth="yes"/>
      <point x="0" y="614"/>
      <point x="11" y="613"/>
      <point x="34" y="607" type="curve" smooth="yes"/>
      <point x="63" y="599"/>
      <point x="88" y="556"/>
      <point x="103" y="534" type="curve" smooth="yes"/>
      <point x="239" y="317" type="line"/>
      <point x="244" y="309"/>
      <point x="264" y="272"/>
      <point x="264" y="246" type="curve" smooth="yes"/>
      <point x="264" y="71" type="line" smooth="yes"/>
      <point x="264" y="34"/>
      <point x="236" y="18"/>
      <point x="186" y="13" type="curve" smooth="yes"/>
      <point x="163" y="10"/>
      <point x="153" y="7"/>
      <point x="153" y="2" type="curve" smooth="yes"/>
      <point x="153" y="-3"/>
      <point x="165" y="-5"/>
    </contour>
  </outline>
</glyph>
<glyph name="backslash" format="1">
  <advance width="399"/>
  <unicode hex="005C"/>
  <outline>
    <contour>
      <point x="370" y="-62" type="curve" smooth="yes"/>
      <point x="378" y="-62"/>
      <point x="382" y="-58"/>
      <point x="380" y="-53" type="curve" smooth="yes"/>
      <point x="56" y="654" type="line" smooth="yes"/>
      <point x="53" y="663"/>
      <point x="44" y="664"/>
      <point x="34" y="664" type="curve" smooth="yes"/>
      <point x="26" y="664"/>
      <point x="24" y="660"/>
      <point x="26" y="654" type="curve" smooth="yes"/>
      <point x="350" y="-53" type="line" smooth="yes"/>
      <point x="353" y="-62"/>
      <point x="362" y="-62"/>
    </contour>
  </outline>
</glyph>
<glyph name="asciicircum" format="1">
  <advance width="500"/>
  <unicode hex="005E"/>
  <outline>
    <contour>
      <point x="51" y="284" type="curve" smooth="yes"/>
      <point x="58" y="284"/>
      <point x="70" y="288"/>
      <point x="75" y="296" type="curve" smooth="yes"/>
      <point x="246" y="552" type="line"/>
      <point x="248" y="555"/>
      <point x="249" y="555"/>
      <point x="252" y="552" type="curve"/>
      <point x="427" y="296" type="line" smooth="yes"/>
      <point x="431" y="290"/>
      <point x="442" y="285"/>
      <point x="450" y="285" type="curve" smooth="yes"/>
      <point x="456" y="285"/>
      <point x="458" y="293"/>
      <point x="454" y="297" type="curve"/>
      <point x="250" y="604" type="line"/>
      <point x="248" y="604" type="line"/>
      <point x="48" y="296" type="line"/>
      <point x="47" y="295"/>
      <point x="45" y="293"/>
      <point x="45" y="290" type="curve" smooth="yes"/>
      <point x="45" y="287"/>
      <point x="48" y="284"/>
    </contour>
  </outline>
</glyph>
<glyph name="underscore" format="1">
  <advance width="500"/>
  <unicode hex="005F"/>
  <outline>
    <contour>
      <point x="8" y="-172" type="curve" smooth="yes"/>
      <point x="482" y="-172" type="line" smooth="yes"/>
      <point x="491" y="-172"/>
      <point x="500" y="-158"/>
      <point x="500" y="-150" type="curve" smooth="yes"/>
      <point x="500" y="-147"/>
      <point x="496" y="-143"/>
      <point x="492" y="-143" type="curve" smooth="yes"/>
      <point x="14" y="-143" type="line" smooth="yes"/>
      <point x="4" y="-143"/>
      <point x="0" y="-160"/>
      <point x="0" y="-165" type="curve" smooth="yes"/>
      <point x="0" y="-168"/>
      <point x="4" y="-172"/>
    </contour>
  </outline>
</glyph>
<glyph name="b" format="1">
  <advance width="515"/>
  <unicode hex="0062"/>
  <outline>
    <contour>
      <point x="259" y="-14" type="curve" smooth="yes"/>
      <point x="390" y="-14"/>
      <point x="480" y="82"/>
      <point x="480" y="222" type="curve" smooth="yes"/>
      <point x="480" y="336"/>
      <point x="401" y="424"/>
      <point x="300" y="424" type="curve" smooth="yes"/>
      <point x="256" y="424"/>
      <point x="195" y="399"/>
      <point x="154" y="365" type="curve"/>
      <point x="147" y="366"/>
      <point x="145" y="372"/>
      <point x="145" y="398" type="curve" smooth="yes"/>
      <point x="145" y="567" type="line" smooth="yes"/>
      <point x="145" y="623"/>
      <point x="148" y="667"/>
      <point x="148" y="672" type="curve" smooth="yes"/>
      <point x="148" y="676"/>
      <point x="145" y="679"/>
      <point x="142" y="679" type="curve" smooth="yes"/>
      <point x="140" y="679"/>
      <point x="137" y="678"/>
      <point x="133" y="676" type="curve" smooth="yes"/>
      <point x="120" y="670"/>
      <point x="55" y="646"/>
      <point x="28" y="641" type="curve" smooth="yes"/>
      <point x="23" y="640"/>
      <point x="16" y="639"/>
      <point x="16" y="634" type="curve" smooth="yes"/>
      <point x="16" y="630"/>
      <point x="23" y="627"/>
      <point x="29" y="625" type="curve" smooth="yes"/>
      <point x="63" y="616"/>
      <point x="75" y="602"/>
      <point x="75" y="569" type="curve" smooth="yes"/>
      <point x="75" y="81" type="line" smooth="yes"/>
      <point x="75" y="56"/>
      <point x="68" y="21"/>
      <point x="68" y="9" type="curve" smooth="yes"/>
      <point x="68" y="2"/>
      <point x="73" y="-3"/>
      <point x="77" y="-3" type="curve" smooth="yes"/>
      <point x="79" y="-3"/>
      <point x="81" y="-1"/>
      <point x="82" y="2" type="curve" smooth="yes"/>
      <point x="86" y="8"/>
      <point x="92" y="15"/>
      <point x="101" y="15" type="curve" smooth="yes"/>
      <point x="108" y="15"/>
      <point x="138" y="7"/>
      <point x="169" y="-1" type="curve" smooth="yes"/>
      <point x="196" y="-8"/>
      <point x="228" y="-14"/>
    </contour>
    <contour>
      <point x="282" y="5" type="curve" smooth="yes"/>
      <point x="208" y="5"/>
      <point x="145" y="48"/>
      <point x="145" y="127" type="curve" smooth="yes"/>
      <point x="145" y="340" type="line"/>
      <point x="174" y="370"/>
      <point x="214" y="390"/>
      <point x="267" y="390" type="curve" smooth="yes"/>
      <point x="362" y="390"/>
      <point x="405" y="281"/>
      <point x="405" y="198" type="curve" smooth="yes"/>
      <point x="405" y="88"/>
      <point x="358" y="5"/>
    </contour>
  </outline>
</glyph>
<glyph name="e" format="1">
  <advance width="390"/>
  <unicode hex="0065"/>
  <outline>
    <contour>
      <point x="213" y="-15" type="curve" smooth="yes"/>
      <point x="268" y="-15"/>
      <point x="321" y="14"/>
      <point x="351" y="60" type="curve" smooth="yes"/>
      <point x="361" y="73"/>
      <point x="365" y="84"/>
      <point x="365" y="93" type="curve" smooth="yes"/>
      <point x="365" y="97"/>
      <point x="363" y="100"/>
      <point x="359" y="100" type="curve" smooth="yes"/>
      <point x="356" y="100"/>
      <point x="355" y="100"/>
      <point x="350" y="93" type="curve" smooth="yes"/>
      <point x="325" y="63"/>
      <point x="290" y="46"/>
      <point x="248" y="46" type="curve" smooth="yes"/>
      <point x="163" y="46"/>
      <point x="94" y="126"/>
      <point x="94" y="225" type="curve" smooth="yes"/>
      <point x="94" y="255"/>
      <point x="100" y="264"/>
      <point x="119" y="264" type="curve" smooth="yes"/>
      <point x="330" y="264" type="line" smooth="yes"/>
      <point x="351" y="264"/>
      <point x="360" y="274"/>
      <point x="360" y="296" type="curve" smooth="yes"/>
      <point x="360" y="371"/>
      <point x="303" y="424"/>
      <point x="223" y="424" type="curve" smooth="yes"/>
      <point x="118" y="424"/>
      <point x="30" y="326"/>
      <point x="30" y="208" type="curve" smooth="yes"/>
      <point x="30" y="74"/>
      <point x="103" y="-15"/>
    </contour>
    <contour>
      <point x="121" y="283" type="line" smooth="yes"/>
      <point x="113" y="283"/>
      <point x="109" y="287"/>
      <point x="109" y="296" type="curve" smooth="yes"/>
      <point x="109" y="347"/>
      <point x="162" y="406"/>
      <point x="208" y="406" type="curve" smooth="yes"/>
      <point x="255" y="406"/>
      <point x="294" y="366"/>
      <point x="294" y="317" type="curve" smooth="yes"/>
      <point x="294" y="300"/>
      <point x="292" y="291"/>
      <point x="286" y="290" type="curve" smooth="yes"/>
      <point x="264" y="284"/>
      <point x="244" y="283"/>
      <point x="212" y="283" type="curve" smooth="yes"/>
    </contour>
  </outline>
</glyph>
<glyph name="f" format="1">
  <advance width="318"/>
  <unicode hex="0066"/>
  <outline>
    <contour>
      <point x="44" y="-3" type="curve" smooth="yes"/>
      <point x="84" y="-3"/>
      <point x="92" y="2"/>
      <point x="127" y="2" type="curve" smooth="yes"/>
      <point x="162" y="2"/>
      <point x="189" y="-3"/>
      <point x="229" y="-3" type="curve" smooth="yes"/>
      <point x="242" y="-3"/>
      <point x="249" y="-1"/>
      <point x="249" y="4" type="curve" smooth="yes"/>
      <point x="249" y="11"/>
      <point x="240" y="13"/>
      <point x="226" y="14" type="curve" smooth="yes"/>
      <point x="172" y="19"/>
      <point x="160" y="26"/>
      <point x="160" y="50" type="curve" smooth="yes"/>
      <point x="160" y="373" type="line" smooth="yes"/>
      <point x="160" y="378"/>
      <point x="163" y="381"/>
      <point x="179" y="381" type="curve" smooth="yes"/>
      <point x="294" y="381" type="line" smooth="yes"/>
      <point x="297" y="381"/>
      <point x="301" y="382"/>
      <point x="303" y="385" type="curve" smooth="yes"/>
      <point x="307" y="390"/>
      <point x="309" y="397"/>
      <point x="309" y="402" type="curve" smooth="yes"/>
      <point x="309" y="405"/>
      <point x="303" y="410"/>
      <point x="296" y="410" type="curve" smooth="yes"/>
      <point x="171" y="410" type="line" smooth="yes"/>
      <point x="165" y="410"/>
      <point x="160" y="411"/>
      <point x="160" y="419" type="curve" smooth="yes"/>
      <point x="160" y="513" type="line" smooth="yes"/>
      <point x="160" y="601"/>
      <point x="208" y="650"/>
      <point x="263" y="650" type="curve" smooth="yes"/>
      <point x="305" y="650"/>
      <point x="329" y="632"/>
      <point x="352" y="603" type="curve" smooth="yes"/>
      <point x="363" y="590"/>
      <point x="374" y="580"/>
      <point x="386" y="580" type="curve" smooth="yes"/>
      <point x="404" y="580"/>
      <point x="420" y="593"/>
      <point x="420" y="620" type="curve" smooth="yes"/>
      <point x="420" y="655"/>
      <point x="381" y="680"/>
      <point x="306" y="680" type="curve" smooth="yes"/>
      <point x="221" y="680"/>
      <point x="90" y="623"/>
      <point x="90" y="431" type="curve" smooth="yes"/>
      <point x="90" y="416" type="line"/>
      <point x="70" y="410"/>
      <point x="55" y="405"/>
      <point x="31" y="398" type="curve" smooth="yes"/>
      <point x="29" y="397"/>
      <point x="24" y="396"/>
      <point x="24" y="394" type="curve" smooth="yes"/>
      <point x="24" y="389"/>
      <point x="34" y="382"/>
      <point x="38" y="381" type="curve"/>
      <point x="59" y="380"/>
      <point x="77" y="380"/>
      <point x="90" y="380" type="curve"/>
      <point x="90" y="50" type="line" smooth="yes"/>
      <point x="90" y="26"/>
      <point x="78" y="20"/>
      <point x="47" y="14" type="curve" smooth="yes"/>
      <point x="33" y="12"/>
      <point x="24" y="11"/>
      <point x="24" y="4" type="curve" smooth="yes"/>
      <point x="24" y="-1"/>
      <point x="31" y="-3"/>
    </contour>
  </outline>
</glyph>
<glyph name="h" format="1">
  <advance width="515"/>
  <unicode hex="0068"/>
  <outline>
    <contour>
      <point x="39" y="-3" type="curve" smooth="yes"/>
      <point x="79" y="-3"/>
      <point x="85" y="0"/>
      <point x="120" y="0" type="curve" smooth="yes"/>
      <point x="155" y="0"/>
      <point x="156" y="-3"/>
      <point x="196" y="-3" type="curve" smooth="yes"/>
      <point x="211" y="-3"/>
      <point x="216" y="-1"/>
      <point x="216" y="4" type="curve" smooth="yes"/>
      <point x="216" y="9"/>
      <point x="208" y="11"/>
      <point x="194" y="14" type="curve" smooth="yes"/>
      <point x="174" y="18"/>
      <point x="155" y="23"/>
      <point x="155" y="40" type="curve" smooth="yes"/>
      <point x="155" y="287" type="line" smooth="yes"/>
      <point x="155" y="328"/>
      <point x="161" y="342"/>
      <point x="182" y="359" type="curve" smooth="yes"/>
      <point x="201" y="374"/>
      <point x="240" y="381"/>
      <point x="265" y="381" type="curve" smooth="yes"/>
      <point x="308" y="381"/>
      <point x="358" y="341"/>
      <point x="358" y="291" type="curve" smooth="yes"/>
      <point x="358" y="42" type="line" smooth="yes"/>
      <point x="358" y="26"/>
      <point x="339" y="19"/>
      <point x="319" y="14" type="curve" smooth="yes"/>
      <point x="304" y="11"/>
      <point x="296" y="10"/>
      <point x="296" y="4" type="curve" smooth="yes"/>
      <point x="296" y="-1"/>
      <point x="302" y="-3"/>
      <point x="316" y="-3" type="curve" smooth="yes"/>
      <point x="356" y="-3"/>
      <point x="359" y="0"/>
      <point x="394" y="0" type="curve" smooth="yes"/>
      <point x="429" y="0"/>
      <point x="432" y="-3"/>
      <point x="472" y="-3" type="curve" smooth="yes"/>
      <point x="486" y="-3"/>
      <point x="492" y="-1"/>
      <point x="492" y="4" type="curve" smooth="yes"/>
      <point x="492" y="9"/>
      <point x="483" y="11"/>
      <point x="469" y="14" type="curve" smooth="yes"/>
      <point x="449" y="18"/>
      <point x="428" y="26"/>
      <point x="428" y="42" type="curve" smooth="yes"/>
      <point x="428" y="288" type="line" smooth="yes"/>
      <point x="428" y="366"/>
      <point x="379" y="424"/>
      <point x="314" y="424" type="curve" smooth="yes"/>
      <point x="240" y="424"/>
      <point x="172" y="368"/>
      <point x="148" y="351" type="curve"/>
      <point x="166" y="355" type="line"/>
      <point x="157" y="368"/>
      <point x="155" y="372"/>
      <point x="155" y="398" type="curve" smooth="yes"/>
      <point x="155" y="536" type="line" smooth="yes"/>
      <point x="155" y="643"/>
      <point x="164" y="660"/>
      <point x="164" y="672" type="curve" smooth="yes"/>
      <point x="164" y="676"/>
      <point x="161" y="679"/>
      <point x="157" y="679" type="curve" smooth="yes"/>
      <point x="155" y="679"/>
      <point x="153" y="678"/>
      <point x="151" y="677" type="curve" smooth="yes"/>
      <point x="118" y="663"/>
      <point x="68" y="647"/>
      <point x="40" y="641" type="curve" smooth="yes"/>
      <point x="34" y="640"/>
      <point x="32" y="637"/>
      <point x="32" y="633" type="curve" smooth="yes"/>
      <point x="32" y="629"/>
      <point x="35" y="625"/>
      <point x="41" y="625" type="curve" smooth="yes"/>
      <point x="75" y="621"/>
      <point x="85" y="602"/>
      <point x="85" y="579" type="curve" smooth="yes"/>
      <point x="85" y="40" type="line" smooth="yes"/>
      <point x="85" y="23"/>
      <point x="62" y="18"/>
      <point x="42" y="14" type="curve" smooth="yes"/>
      <point x="25" y="11"/>
      <point x="19" y="9"/>
      <point x="19" y="4" type="curve" smooth="yes"/>
      <point x="19" y="-1"/>
      <point x="27" y="-3"/>
    </contour>
  </outline>
</glyph>
<glyph name="k" format="1">
  <advance width="469"/>
  <unicode hex="006B"/>
  <outline>
    <contour>
      <point x="42" y="-3" type="curve" smooth="yes"/>
      <point x="81" y="-3"/>
      <point x="85" y="2"/>
      <point x="120" y="2" type="curve" smooth="yes"/>
      <point x="155" y="2"/>
      <point x="151" y="-3"/>
      <point x="190" y="-3" type="curve" smooth="yes"/>
      <point x="195" y="-3"/>
      <point x="213" y="-3"/>
      <point x="213" y="4" type="curve" smooth="yes"/>
      <point x="213" y="11"/>
      <point x="201" y="12"/>
      <point x="190" y="14" type="curve" smooth="yes"/>
      <point x="167" y="18"/>
      <point x="155" y="22"/>
      <point x="155" y="50" type="curve" smooth="yes"/>
      <point x="154" y="88"/>
      <point x="154" y="111"/>
      <point x="154" y="134" type="curve" smooth="yes"/>
      <point x="154" y="156"/>
      <point x="154" y="186"/>
      <point x="155" y="205" type="curve"/>
      <point x="155" y="210"/>
      <point x="157" y="211"/>
      <point x="160" y="211" type="curve" smooth="yes"/>
      <point x="164" y="211"/>
      <point x="166" y="210"/>
      <point x="170" y="205" type="curve" smooth="yes"/>
      <point x="306" y="47" type="line"/>
      <point x="310" y="42"/>
      <point x="313" y="37"/>
      <point x="313" y="32" type="curve" smooth="yes"/>
      <point x="313" y="23"/>
      <point x="299" y="18"/>
      <point x="270" y="15" type="curve" smooth="yes"/>
      <point x="261" y="14"/>
      <point x="254" y="10"/>
      <point x="254" y="5" type="curve" smooth="yes"/>
      <point x="254" y="2"/>
      <point x="258" y="0"/>
      <point x="272" y="0" type="curve" smooth="yes"/>
      <point x="340" y="0"/>
      <point x="407" y="-3"/>
      <point x="459" y="-3" type="curve" smooth="yes"/>
      <point x="471" y="-3"/>
      <point x="479" y="-2"/>
      <point x="479" y="4" type="curve" smooth="yes"/>
      <point x="479" y="9"/>
      <point x="469" y="12"/>
      <point x="458" y="14" type="curve" smooth="yes"/>
      <point x="439" y="18"/>
      <point x="418" y="30"/>
      <point x="390" y="56" type="curve" smooth="yes"/>
      <point x="369" y="74"/>
      <point x="275" y="177"/>
      <point x="222" y="236" type="curve" smooth="yes"/>
      <point x="220" y="238"/>
      <point x="219" y="241"/>
      <point x="219" y="243" type="curve" smooth="yes"/>
      <point x="219" y="246"/>
      <point x="221" y="249"/>
      <point x="225" y="253" type="curve" smooth="yes"/>
      <point x="272" y="298"/>
      <point x="337" y="353"/>
      <point x="357" y="367" type="curve" smooth="yes"/>
      <point x="378" y="381"/>
      <point x="399" y="392"/>
      <point x="424" y="398" type="curve" smooth="yes"/>
      <point x="438" y="401"/>
      <point x="449" y="405"/>
      <point x="449" y="410" type="curve" smooth="yes"/>
      <point x="449" y="415"/>
      <point x="444" y="417"/>
      <point x="435" y="417" type="curve" smooth="yes"/>
      <point x="414" y="417"/>
      <point x="375" y="410"/>
      <point x="344" y="410" type="curve" smooth="yes"/>
      <point x="295" y="410" type="line" smooth="yes"/>
      <point x="281" y="410"/>
      <point x="273" y="407"/>
      <point x="273" y="402" type="curve" smooth="yes"/>
      <point x="273" y="399"/>
      <point x="276" y="397"/>
      <point x="285" y="396" type="curve" smooth="yes"/>
      <point x="309" y="395"/>
      <point x="322" y="388"/>
      <point x="322" y="378" type="curve" smooth="yes"/>
      <point x="322" y="374"/>
      <point x="320" y="369"/>
      <point x="314" y="363" type="curve" smooth="yes"/>
      <point x="285" y="333"/>
      <point x="244" y="291"/>
      <point x="196" y="246" type="curve" smooth="yes"/>
      <point x="181" y="232"/>
      <point x="168" y="225"/>
      <point x="160" y="225" type="curve" smooth="yes"/>
      <point x="157" y="225"/>
      <point x="155" y="228"/>
      <point x="155" y="234" type="curve" smooth="yes"/>
      <point x="155" y="536" type="line" smooth="yes"/>
      <point x="155" y="621"/>
      <point x="164" y="656"/>
      <point x="164" y="670" type="curve" smooth="yes"/>
      <point x="164" y="676"/>
      <point x="163" y="679"/>
      <point x="159" y="679" type="curve" smooth="yes"/>
      <point x="156" y="679"/>
      <point x="149" y="677"/>
      <point x="145" y="674" type="curve" smooth="yes"/>
      <point x="117" y="659"/>
      <point x="78" y="650"/>
      <point x="39" y="641" type="curve" smooth="yes"/>
      <point x="34" y="640"/>
      <point x="31" y="638"/>
      <point x="31" y="633" type="curve" smooth="yes"/>
      <point x="31" y="629"/>
      <point x="34" y="626"/>
      <point x="40" y="625" type="curve" smooth="yes"/>
      <point x="83" y="620"/>
      <point x="85" y="607"/>
      <point x="85" y="564" type="curve" smooth="yes"/>
      <point x="85" y="47" type="line" smooth="yes"/>
      <point x="85" y="24"/>
      <point x="70" y="19"/>
      <point x="42" y="14" type="curve" smooth="yes"/>
      <point x="31" y="12"/>
      <point x="19" y="11"/>
      <point x="19" y="4" type="curve" smooth="yes"/>
      <point x="19" y="-1"/>
      <point x="27" y="-3"/>
    </contour>
  </outline>
</glyph>
<glyph name="l" format="1">
  <advance width="240"/>
  <unicode hex="006C"/>
  <outline>
    <contour>
      <point x="39" y="-3" type="curve" smooth="yes"/>
      <point x="78" y="-3"/>
      <point x="85" y="2"/>
      <point x="120" y="2" type="curve" smooth="yes"/>
      <point x="155" y="2"/>
      <point x="162" y="-3"/>
      <point x="201" y="-3" type="curve" smooth="yes"/>
      <point x="208" y="-3"/>
      <point x="221" y="-3"/>
      <point x="221" y="3" type="curve" smooth="yes"/>
      <point x="221" y="10"/>
      <point x="209" y="13"/>
      <point x="198" y="15" type="curve"/>
      <point x="178" y="19"/>
      <point x="155" y="22"/>
      <point x="155" y="45" type="curve" smooth="yes"/>
      <point x="155" y="536" type="line" smooth="yes"/>
      <point x="155" y="626"/>
      <point x="162" y="660"/>
      <point x="162" y="672" type="curve" smooth="yes"/>
      <point x="162" y="675"/>
      <point x="160" y="679"/>
      <point x="157" y="679" type="curve" smooth="yes"/>
      <point x="155" y="679"/>
      <point x="153" y="678"/>
      <point x="151" y="677" type="curve" smooth="yes"/>
      <point x="119" y="657"/>
      <point x="89" y="644"/>
      <point x="40" y="635" type="curve" smooth="yes"/>
      <point x="34" y="634"/>
      <point x="31" y="631"/>
      <point x="31" y="627" type="curve" smooth="yes"/>
      <point x="31" y="622"/>
      <point x="34" y="619"/>
      <point x="42" y="617" type="curve" smooth="yes"/>
      <point x="74" y="611"/>
      <point x="85" y="590"/>
      <point x="85" y="558" type="curve" smooth="yes"/>
      <point x="85" y="45" type="line" smooth="yes"/>
      <point x="85" y="22"/>
      <point x="62" y="19"/>
      <point x="42" y="15" type="curve"/>
      <point x="31" y="13"/>
      <point x="19" y="10"/>
      <point x="19" y="3" type="curve" smooth="yes"/>
      <point x="19" y="-3"/>
      <point x="32" y="-3"/>
    </contour>
  </outline>
</glyph>
<glyph name="n" format="1">
  <advance width="528"/>
  <unicode hex="006E"/>
  <outline>
    <contour>
      <point x="44" y="-3" type="curve" smooth="yes"/>
      <point x="84" y="-3"/>
      <point x="90" y="0"/>
      <point x="125" y="0" type="curve" smooth="yes"/>
      <point x="160" y="0"/>
      <point x="166" y="-3"/>
      <point x="206" y="-3" type="curve" smooth="yes"/>
      <point x="219" y="-3"/>
      <point x="226" y="-1"/>
      <point x="226" y="4" type="curve" smooth="yes"/>
      <point x="226" y="8"/>
      <point x="219" y="10"/>
      <point x="203" y="13" type="curve" smooth="yes"/>
      <point x="183" y="16"/>
      <point x="160" y="20"/>
      <point x="160" y="35" type="curve" smooth="yes"/>
      <point x="160" y="322" type="line" smooth="yes"/>
      <point x="160" y="330"/>
      <point x="163" y="342"/>
      <point x="168" y="347" type="curve" smooth="yes"/>
      <point x="194" y="374"/>
      <point x="231" y="390"/>
      <point x="279" y="390" type="curve" smooth="yes"/>
      <point x="333" y="389"/>
      <point x="369" y="351"/>
      <point x="369" y="289" type="curve" smooth="yes"/>
      <point x="369" y="35" type="line" smooth="yes"/>
      <point x="369" y="20"/>
      <point x="346" y="17"/>
      <point x="326" y="13" type="curve" smooth="yes"/>
      <point x="315" y="10"/>
      <point x="303" y="8"/>
      <point x="303" y="2" type="curve" smooth="yes"/>
      <point x="303" y="-3"/>
      <point x="316" y="-3"/>
      <point x="323" y="-3" type="curve" smooth="yes"/>
      <point x="363" y="-3"/>
      <point x="370" y="0"/>
      <point x="405" y="0" type="curve" smooth="yes"/>
      <point x="440" y="0"/>
      <point x="445" y="-3"/>
      <point x="485" y="-3" type="curve" smooth="yes"/>
      <point x="493" y="-3"/>
      <point x="505" y="-3"/>
      <point x="505" y="2" type="curve" smooth="yes"/>
      <point x="505" y="8"/>
      <point x="493" y="10"/>
      <point x="482" y="13" type="curve"/>
      <point x="462" y="17"/>
      <point x="439" y="20"/>
      <point x="439" y="35" type="curve" smooth="yes"/>
      <point x="439" y="292" type="line" smooth="yes"/>
      <point x="439" y="366"/>
      <point x="391" y="423"/>
      <point x="326" y="423" type="curve" smooth="yes"/>
      <point x="263" y="423"/>
      <point x="212" y="402"/>
      <point x="165" y="360" type="curve"/>
      <point x="164" y="365"/>
      <point x="163" y="370"/>
      <point x="163" y="376" type="curve" smooth="yes"/>
      <point x="163" y="395"/>
      <point x="168" y="424"/>
      <point x="168" y="433" type="curve" smooth="yes"/>
      <point x="168" y="437"/>
      <point x="166" y="440"/>
      <point x="163" y="440" type="curve" smooth="yes"/>
      <point x="159" y="440"/>
      <point x="156" y="438"/>
      <point x="152" y="434" type="curve" smooth="yes"/>
      <point x="124" y="411"/>
      <point x="98" y="391"/>
      <point x="51" y="379" type="curve" smooth="yes"/>
      <point x="46" y="378"/>
      <point x="43" y="376"/>
      <point x="43" y="372" type="curve" smooth="yes"/>
      <point x="43" y="367"/>
      <point x="46" y="365"/>
      <point x="51" y="364" type="curve" smooth="yes"/>
      <point x="87" y="355"/>
      <point x="90" y="326"/>
      <point x="90" y="287" type="curve" smooth="yes"/>
      <point x="90" y="35" type="line" smooth="yes"/>
      <point x="90" y="20"/>
      <point x="67" y="16"/>
      <point x="47" y="13" type="curve" smooth="yes"/>
      <point x="32" y="10"/>
      <point x="24" y="9"/>
      <point x="24" y="4" type="curve" smooth="yes"/>
      <point x="24" y="-1"/>
      <point x="32" y="-3"/>
    </contour>
  </outline>
</glyph>
<glyph name="p" format="1">
  <advance width="519"/>
  <unicode hex="0070"/>
  <outline>
    <contour>
      <point x="40" y="-245" type="curve" smooth="yes"/>
      <point x="79" y="-245"/>
      <point x="85" y="-241"/>
      <point x="120" y="-241" type="curve" smooth="yes"/>
      <point x="155" y="-241"/>
      <point x="175" y="-245"/>
      <point x="214" y="-245" type="curve" smooth="yes"/>
      <point x="222" y="-245"/>
      <point x="236" y="-244"/>
      <point x="236" y="-239" type="curve" smooth="yes"/>
      <point x="236" y="-232"/>
      <point x="224" y="-230"/>
      <point x="213" y="-227" type="curve"/>
      <point x="193" y="-223"/>
      <point x="155" y="-220"/>
      <point x="155" y="-202" type="curve" smooth="yes"/>
      <point x="155" y="-33" type="line" smooth="yes"/>
      <point x="155" y="-27"/>
      <point x="156" y="19"/>
      <point x="159" y="19" type="curve"/>
      <point x="179" y="0"/>
      <point x="231" y="-14"/>
      <point x="259" y="-14" type="curve" smooth="yes"/>
      <point x="385" y="-14"/>
      <point x="484" y="109"/>
      <point x="484" y="231" type="curve" smooth="yes"/>
      <point x="484" y="327"/>
      <point x="423" y="423"/>
      <point x="320" y="424" type="curve" smooth="yes"/>
      <point x="257" y="424"/>
      <point x="177" y="377"/>
      <point x="158" y="358" type="curve"/>
      <point x="157" y="361"/>
      <point x="157" y="365"/>
      <point x="157" y="369" type="curve" smooth="yes"/>
      <point x="157" y="384"/>
      <point x="162" y="416"/>
      <point x="162" y="427" type="curve" smooth="yes"/>
      <point x="162" y="431"/>
      <point x="159" y="436"/>
      <point x="156" y="436" type="curve" smooth="yes"/>
      <point x="155" y="436"/>
      <point x="155" y="435"/>
      <point x="154" y="435" type="curve"/>
      <point x="122" y="422"/>
      <point x="89" y="407"/>
      <point x="38" y="395" type="curve" smooth="yes"/>
      <point x="34" y="394"/>
      <point x="31" y="391"/>
      <point x="31" y="386" type="curve" smooth="yes"/>
      <point x="31" y="382"/>
      <point x="34" y="378"/>
      <point x="39" y="378" type="curve" smooth="yes"/>
      <point x="75" y="373"/>
      <point x="85" y="340"/>
      <point x="85" y="317" type="curve" smooth="yes"/>
      <point x="85" y="-202" type="line" smooth="yes"/>
      <point x="85" y="-220"/>
      <point x="62" y="-223"/>
      <point x="42" y="-227" type="curve"/>
      <point x="31" y="-230"/>
      <point x="19" y="-232"/>
      <point x="19" y="-239" type="curve" smooth="yes"/>
      <point x="19" y="-244"/>
      <point x="33" y="-245"/>
    </contour>
    <contour>
      <point x="274" y="7" type="curve" smooth="yes"/>
      <point x="212" y="7"/>
      <point x="155" y="60"/>
      <point x="155" y="168" type="curve" smooth="yes"/>
      <point x="155" y="194"/>
      <point x="158" y="269"/>
      <point x="158" y="333" type="curve" smooth="yes"/>
      <point x="158" y="348"/>
      <point x="220" y="387"/>
      <point x="268" y="387" type="curve" smooth="yes"/>
      <point x="325" y="387"/>
      <point x="404" y="345"/>
      <point x="404" y="197" type="curve" smooth="yes"/>
      <point x="404" y="58"/>
      <point x="335" y="7"/>
    </contour>
  </outline>
</glyph>
<glyph name="r" format="1">
  <advance width="334"/>
  <unicode hex="0072"/>
  <outline>
    <contour>
      <point x="49" y="-3" type="curve" smooth="yes"/>
      <point x="89" y="-3"/>
      <point x="95" y="2"/>
      <point x="130" y="2" type="curve" smooth="yes"/>
      <point x="165" y="2"/>
      <point x="177" y="-3"/>
      <point x="217" y="-3" type="curve" smooth="yes"/>
      <point x="231" y="-3"/>
      <point x="237" y="-1"/>
      <point x="237" y="4" type="curve" smooth="yes"/>
      <point x="237" y="9"/>
      <point x="228" y="11"/>
      <point x="214" y="13" type="curve" smooth="yes"/>
      <point x="181" y="19"/>
      <point x="161" y="24"/>
      <point x="161" y="40" type="curve" smooth="yes"/>
      <point x="161" y="291" type="line" smooth="yes"/>
      <point x="161" y="353"/>
      <point x="200" y="371"/>
      <point x="230" y="371" type="curve" smooth="yes"/>
      <point x="239" y="371"/>
      <point x="251" y="363"/>
      <point x="262" y="355" type="curve" smooth="yes"/>
      <point x="273" y="346"/>
      <point x="283" y="338"/>
      <point x="290" y="338" type="curve" smooth="yes"/>
      <point x="310" y="338"/>
      <point x="329" y="370"/>
      <point x="329" y="390" type="curve" smooth="yes"/>
      <point x="329" y="408"/>
      <point x="309" y="422"/>
      <point x="281" y="422" type="curve" smooth="yes"/>
      <point x="242" y="422"/>
      <point x="198" y="393"/>
      <point x="166" y="354" type="curve"/>
      <point x="165" y="354"/>
      <point x="164" y="355"/>
      <point x="164" y="356" type="curve"/>
      <point x="166" y="388"/>
      <point x="167" y="424"/>
      <point x="167" y="431" type="curve"/>
      <point x="167" y="435"/>
      <point x="165" y="438"/>
      <point x="162" y="438" type="curve" smooth="yes"/>
      <point x="159" y="438"/>
      <point x="153" y="435"/>
      <point x="146" y="429" type="curve" smooth="yes"/>
      <point x="123" y="411"/>
      <point x="82" y="387"/>
      <point x="47" y="378" type="curve" smooth="yes"/>
      <point x="43" y="377"/>
      <point x="38" y="374"/>
      <point x="38" y="370" type="curve" smooth="yes"/>
      <point x="38" y="367"/>
      <point x="43" y="363"/>
      <point x="48" y="363" type="curve" smooth="yes"/>
      <point x="81" y="356"/>
      <point x="90" y="328"/>
      <point x="90" y="297" type="curve" smooth="yes"/>
      <point x="90" y="40" type="line" smooth="yes"/>
      <point x="90" y="24"/>
      <point x="77" y="17"/>
      <point x="52" y="13" type="curve" smooth="yes"/>
      <point x="37" y="11"/>
      <point x="29" y="9"/>
      <point x="29" y="4" type="curve" smooth="yes"/>
      <point x="29" y="-1"/>
      <point x="35" y="-3"/>
    </contour>
  </outline>
</glyph>
<glyph name="s" format="1">
  <advance width="323"/>
  <unicode hex="0073"/>
  <outline>
    <contour>
      <point x="144" y="-14" type="curve" smooth="yes"/>
      <point x="231" y="-14"/>
      <point x="291" y="37"/>
      <point x="291" y="110" type="curve" smooth="yes"/>
      <point x="291" y="173"/>
      <point x="253" y="205"/>
      <point x="182" y="248" type="curve" smooth="yes"/>
      <point x="122" y="284"/>
      <point x="107" y="306"/>
      <point x="107" y="342" type="curve" smooth="yes"/>
      <point x="107" y="383"/>
      <point x="138" y="407"/>
      <point x="171" y="407" type="curve" smooth="yes"/>
      <point x="209" y="407"/>
      <point x="234" y="380"/>
      <point x="252" y="328" type="curve" smooth="yes"/>
      <point x="254" y="323"/>
      <point x="263" y="319"/>
      <point x="271" y="319" type="curve" smooth="yes"/>
      <point x="276" y="319"/>
      <point x="281" y="321"/>
      <point x="281" y="326" type="curve" smooth="yes"/>
      <point x="281" y="355"/>
      <point x="272" y="390"/>
      <point x="262" y="405" type="curve"/>
      <point x="249" y="414"/>
      <point x="222" y="424"/>
      <point x="182" y="424" type="curve" smooth="yes"/>
      <point x="92" y="424"/>
      <point x="47" y="372"/>
      <point x="47" y="307" type="curve" smooth="yes"/>
      <point x="47" y="255"/>
      <point x="74" y="222"/>
      <point x="142" y="180" type="curve" smooth="yes"/>
      <point x="203" y="142"/>
      <point x="223" y="119"/>
      <point x="223" y="79" type="curve" smooth="yes"/>
      <point x="223" y="35"/>
      <point x="192" y="2"/>
      <point x="153" y="2" type="curve" smooth="yes"/>
      <point x="114" y="2"/>
      <point x="69" y="30"/>
      <point x="53" y="98" type="curve"/>
      <point x="51" y="108"/>
      <point x="46" y="110"/>
      <point x="41" y="110" type="curve" smooth="yes"/>
      <point x="34" y="110"/>
      <point x="29" y="107"/>
      <point x="29" y="98" type="curve"/>
      <point x="30" y="78"/>
      <point x="33" y="35"/>
      <point x="40" y="22" type="curve"/>
      <point x="65" y="-1"/>
      <point x="103" y="-14"/>
    </contour>
  </outline>
</glyph>
<glyph name="t" format="1">
  <advance width="314"/>
  <unicode hex="0074"/>
  <outline>
    <contour>
      <point x="189" y="-14" type="curve" smooth="yes"/>
      <point x="250" y="-14"/>
      <point x="306" y="39"/>
      <point x="306" y="48" type="curve" smooth="yes"/>
      <point x="306" y="53"/>
      <point x="305" y="57"/>
      <point x="302" y="57" type="curve" smooth="yes"/>
      <point x="300" y="57"/>
      <point x="298" y="55"/>
      <point x="297" y="54" type="curve" smooth="yes"/>
      <point x="272" y="34"/>
      <point x="254" y="25"/>
      <point x="224" y="25" type="curve" smooth="yes"/>
      <point x="181" y="25"/>
      <point x="155" y="59"/>
      <point x="155" y="115" type="curve" smooth="yes"/>
      <point x="155" y="367" type="line" smooth="yes"/>
      <point x="155" y="383"/>
      <point x="161" y="383"/>
      <point x="195" y="383" type="curve" smooth="yes"/>
      <point x="294" y="383" type="line" smooth="yes"/>
      <point x="299" y="383"/>
      <point x="304" y="391"/>
      <point x="304" y="397" type="curve" smooth="yes"/>
      <point x="304" y="404"/>
      <point x="299" y="410"/>
      <point x="294" y="410" type="curve" smooth="yes"/>
      <point x="180" y="410" type="line" smooth="yes"/>
      <point x="163" y="410"/>
      <point x="154" y="414"/>
      <point x="156" y="429" type="curve" smooth="yes"/>
      <point x="161" y="474" type="line" smooth="yes"/>
      <point x="162" y="483"/>
      <point x="158" y="485"/>
      <point x="152" y="485" type="curve" smooth="yes"/>
      <point x="147" y="485"/>
      <point x="142" y="480"/>
      <point x="137" y="473" type="curve" smooth="yes"/>
      <point x="117" y="443"/>
      <point x="88" y="421"/>
      <point x="47" y="406" type="curve" smooth="yes"/>
      <point x="40" y="405"/>
      <point x="35" y="399"/>
      <point x="35" y="396" type="curve" smooth="yes"/>
      <point x="35" y="388"/>
      <point x="40" y="383"/>
      <point x="47" y="383" type="curve" smooth="yes"/>
      <point x="53" y="383" type="line"/>
      <point x="79" y="383"/>
      <point x="85" y="380"/>
      <point x="85" y="371" type="curve" smooth="yes"/>
      <point x="85" y="105" type="line" smooth="yes"/>
      <point x="85" y="26"/>
      <point x="124" y="-14"/>
    </contour>
  </outline>
</glyph>
<glyph name="u" format="1">
  <advance width="527"/>
  <unicode hex="0075"/>
  <outline>
    <contour>
      <point x="366" y="-19" type="curve" smooth="yes"/>
      <point x="372" y="-19"/>
      <point x="382" y="-15"/>
      <point x="386" y="-13" type="curve"/>
      <point x="415" y="-1"/>
      <point x="451" y="15"/>
      <point x="503" y="22" type="curve" smooth="yes"/>
      <point x="511" y="23"/>
      <point x="517" y="24"/>
      <point x="517" y="30" type="curve" smooth="yes"/>
      <point x="517" y="37"/>
      <point x="509" y="37"/>
      <point x="502" y="37" type="curve" smooth="yes"/>
      <point x="492" y="37"/>
      <point x="466" y="35"/>
      <point x="456" y="35" type="curve" smooth="yes"/>
      <point x="444" y="35"/>
      <point x="438" y="49"/>
      <point x="438" y="81" type="curve" smooth="yes"/>
      <point x="438" y="336" type="line" smooth="yes"/>
      <point x="438" y="352"/>
      <point x="443" y="398"/>
      <point x="445" y="405" type="curve" smooth="yes"/>
      <point x="446" y="409"/>
      <point x="447" y="412"/>
      <point x="447" y="414" type="curve" smooth="yes"/>
      <point x="447" y="421"/>
      <point x="441" y="425"/>
      <point x="434" y="425" type="curve" smooth="yes"/>
      <point x="431" y="425"/>
      <point x="427" y="424"/>
      <point x="424" y="423" type="curve"/>
      <point x="388" y="413"/>
      <point x="362" y="408"/>
      <point x="301" y="407" type="curve" smooth="yes"/>
      <point x="290" y="407"/>
      <point x="280" y="405"/>
      <point x="280" y="399" type="curve" smooth="yes"/>
      <point x="280" y="391"/>
      <point x="289" y="389"/>
      <point x="301" y="389" type="curve" smooth="yes"/>
      <point x="342" y="389"/>
      <point x="368" y="383"/>
      <point x="368" y="347" type="curve" smooth="yes"/>
      <point x="368" y="125" type="line" smooth="yes"/>
      <point x="368" y="90"/>
      <point x="345" y="68"/>
      <point x="326" y="54" type="curve" smooth="yes"/>
      <point x="305" y="39"/>
      <point x="277" y="34"/>
      <point x="239" y="34" type="curve" smooth="yes"/>
      <point x="197" y="34"/>
      <point x="155" y="75"/>
      <point x="155" y="128" type="curve" smooth="yes"/>
      <point x="155" y="333" type="line" smooth="yes"/>
      <point x="155" y="363"/>
      <point x="157" y="379"/>
      <point x="161" y="410" type="curve" smooth="yes"/>
      <point x="162" y="421"/>
      <point x="157" y="424"/>
      <point x="151" y="424" type="curve" smooth="yes"/>
      <point x="148" y="424"/>
      <point x="147" y="424"/>
      <point x="143" y="423" type="curve" smooth="yes"/>
      <point x="106" y="414"/>
      <point x="89" y="410"/>
      <point x="44" y="408" type="curve" smooth="yes"/>
      <point x="36" y="407"/>
      <point x="29" y="406"/>
      <point x="29" y="399" type="curve" smooth="yes"/>
      <point x="29" y="393"/>
      <point x="35" y="391"/>
      <point x="42" y="389" type="curve"/>
      <point x="77" y="382"/>
      <point x="85" y="369"/>
      <point x="85" y="336" type="curve" smooth="yes"/>
      <point x="85" y="105" type="line" smooth="yes"/>
      <point x="85" y="27"/>
      <point x="134" y="-14"/>
      <point x="199" y="-14" type="curve" smooth="yes"/>
      <point x="261" y="-14"/>
      <point x="312" y="9"/>
      <point x="364" y="68" type="curve"/>
      <point x="364" y="55"/>
      <point x="364" y="53"/>
      <point x="364" y="51" type="curve" smooth="yes"/>
      <point x="364" y="34"/>
      <point x="359" y="2"/>
      <point x="359" y="-11" type="curve" smooth="yes"/>
      <point x="359" y="-16"/>
      <point x="361" y="-19"/>
    </contour>
  </outline>
</glyph>
<glyph name="w" format="1">
  <advance width="685"/>
  <unicode hex="0077"/>
  <outline>
    <contour>
      <point x="226" y="-23" type="curve" smooth="yes"/>
      <point x="229" y="-23"/>
      <point x="233" y="-20"/>
      <point x="235" y="-16" type="curve"/>
      <point x="336" y="269" type="line" smooth="yes"/>
      <point x="339" y="276"/>
      <point x="341" y="279"/>
      <point x="343" y="279" type="curve" smooth="yes"/>
      <point x="345" y="279"/>
      <point x="347" y="275"/>
      <point x="349" y="270" type="curve" smooth="yes"/>
      <point x="459" y="-16" type="line"/>
      <point x="461" y="-20"/>
      <point x="465" y="-23"/>
      <point x="468" y="-23" type="curve" smooth="yes"/>
      <point x="472" y="-23"/>
      <point x="475" y="-20"/>
      <point x="477" y="-16" type="curve"/>
      <point x="610" y="329" type="line" smooth="yes"/>
      <point x="627" y="375"/>
      <point x="646" y="396"/>
      <point x="669" y="399" type="curve"/>
      <point x="680" y="400"/>
      <point x="690" y="403"/>
      <point x="690" y="409" type="curve" smooth="yes"/>
      <point x="690" y="414"/>
      <point x="678" y="415"/>
      <point x="670" y="415" type="curve" smooth="yes"/>
      <point x="648" y="415"/>
      <point x="649" y="412"/>
      <point x="612" y="412" type="curve" smooth="yes"/>
      <point x="576" y="412"/>
      <point x="567" y="415"/>
      <point x="538" y="415" type="curve" smooth="yes"/>
      <point x="531" y="415"/>
      <point x="518" y="414"/>
      <point x="518" y="409" type="curve" smooth="yes"/>
      <point x="518" y="403"/>
      <point x="531" y="400"/>
      <point x="543" y="399" type="curve" smooth="yes"/>
      <point x="570" y="396"/>
      <point x="590" y="381"/>
      <point x="590" y="357" type="curve" smooth="yes"/>
      <point x="590" y="348"/>
      <point x="587" y="335"/>
      <point x="583" y="323" type="curve" smooth="yes"/>
      <point x="499" y="100" type="line" smooth="yes"/>
      <point x="496" y="93"/>
      <point x="494" y="90"/>
      <point x="491" y="90" type="curve" smooth="yes"/>
      <point x="489" y="90"/>
      <point x="486" y="94"/>
      <point x="483" y="101" type="curve" smooth="yes"/>
      <point x="402" y="322" type="line" smooth="yes"/>
      <point x="397" y="335"/>
      <point x="394" y="347"/>
      <point x="394" y="358" type="curve" smooth="yes"/>
      <point x="394" y="379"/>
      <point x="408" y="391"/>
      <point x="428" y="397" type="curve" smooth="yes"/>
      <point x="439" y="400"/>
      <point x="451" y="402"/>
      <point x="451" y="409" type="curve" smooth="yes"/>
      <point x="451" y="414"/>
      <point x="438" y="415"/>
      <point x="431" y="415" type="curve" smooth="yes"/>
      <point x="409" y="415"/>
      <point x="384" y="411"/>
      <point x="347" y="411" type="curve" smooth="yes"/>
      <point x="310" y="411"/>
      <point x="290" y="415"/>
      <point x="272" y="415" type="curve" smooth="yes"/>
      <point x="264" y="415"/>
      <point x="252" y="414"/>
      <point x="252" y="409" type="curve" smooth="yes"/>
      <point x="252" y="402"/>
      <point x="265" y="399"/>
      <point x="275" y="397" type="curve" smooth="yes"/>
      <point x="307" y="391"/>
      <point x="327" y="367"/>
      <point x="327" y="335" type="curve" smooth="yes"/>
      <point x="327" y="319"/>
      <point x="324" y="301"/>
      <point x="317" y="282" type="curve" smooth="yes"/>
      <point x="254" y="99" type="line" smooth="yes"/>
      <point x="253" y="96"/>
      <point x="251" y="95"/>
      <point x="249" y="95" type="curve" smooth="yes"/>
      <point x="247" y="95"/>
      <point x="245" y="96"/>
      <point x="244" y="99" type="curve" smooth="yes"/>
      <point x="158" y="333" type="line" smooth="yes"/>
      <point x="155" y="341"/>
      <point x="153" y="350"/>
      <point x="153" y="359" type="curve" smooth="yes"/>
      <point x="153" y="378"/>
      <point x="159" y="394"/>
      <point x="178" y="398" type="curve"/>
      <point x="189" y="401"/>
      <point x="201" y="403"/>
      <point x="201" y="409" type="curve" smooth="yes"/>
      <point x="201" y="414"/>
      <point x="186" y="415"/>
      <point x="181" y="415" type="curve" smooth="yes"/>
      <point x="153" y="415"/>
      <point x="126" y="411"/>
      <point x="98" y="411" type="curve" smooth="yes"/>
      <point x="72" y="411"/>
      <point x="50" y="415"/>
      <point x="25" y="415" type="curve" smooth="yes"/>
      <point x="18" y="415"/>
      <point x="5" y="414"/>
      <point x="5" y="409" type="curve" smooth="yes"/>
      <point x="5" y="403"/>
      <point x="17" y="401"/>
      <point x="28" y="398" type="curve"/>
      <point x="47" y="394"/>
      <point x="66" y="375"/>
      <point x="76" y="350" type="curve" smooth="yes"/>
      <point x="218" y="-16" type="line"/>
      <point x="219" y="-20"/>
      <point x="223" y="-23"/>
    </contour>
  </outline>
</glyph>
<glyph name="x" format="1">
  <advance width="430"/>
  <unicode hex="0078"/>
  <outline>
    <contour>
      <point x="30" y="-4" type="curve" smooth="yes"/>
      <point x="48" y="-4"/>
      <point x="60" y="1"/>
      <point x="97" y="1" type="curve" smooth="yes"/>
      <point x="113" y="1"/>
      <point x="131" y="-1"/>
      <point x="142" y="-2" type="curve" smooth="yes"/>
      <point x="147" y="-3"/>
      <point x="165" y="-3"/>
      <point x="165" y="3" type="curve" smooth="yes"/>
      <point x="165" y="10"/>
      <point x="152" y="13"/>
      <point x="142" y="15" type="curve"/>
      <point x="123" y="18"/>
      <point x="113" y="23"/>
      <point x="112" y="32" type="curve" smooth="yes"/>
      <point x="112" y="38"/>
      <point x="116" y="46"/>
      <point x="120" y="53" type="curve" smooth="yes"/>
      <point x="201" y="177" type="line" smooth="yes"/>
      <point x="202" y="178"/>
      <point x="206" y="178"/>
      <point x="207" y="177" type="curve" smooth="yes"/>
      <point x="276" y="61" type="line" smooth="yes"/>
      <point x="282" y="52"/>
      <point x="285" y="44"/>
      <point x="285" y="38" type="curve" smooth="yes"/>
      <point x="285" y="26"/>
      <point x="273" y="17"/>
      <point x="250" y="15" type="curve" smooth="yes"/>
      <point x="234" y="13"/>
      <point x="225" y="11"/>
      <point x="225" y="3" type="curve" smooth="yes"/>
      <point x="225" y="1"/>
      <point x="231" y="-3"/>
      <point x="248" y="-3" type="curve" smooth="yes"/>
      <point x="271" y="-3"/>
      <point x="297" y="-2"/>
      <point x="321" y="-2" type="curve" smooth="yes"/>
      <point x="371" y="-2"/>
      <point x="364" y="-4"/>
      <point x="405" y="-4" type="curve" smooth="yes"/>
      <point x="413" y="-4"/>
      <point x="425" y="-4"/>
      <point x="425" y="1" type="curve" smooth="yes"/>
      <point x="425" y="8"/>
      <point x="415" y="9"/>
      <point x="404" y="11" type="curve" smooth="yes"/>
      <point x="389" y="15"/>
      <point x="379" y="24"/>
      <point x="366" y="46" type="curve" smooth="yes"/>
      <point x="252" y="234" type="line" smooth="yes"/>
      <point x="249" y="239"/>
      <point x="249" y="244"/>
      <point x="251" y="247" type="curve" smooth="yes"/>
      <point x="321" y="353" type="line" smooth="yes"/>
      <point x="341" y="382"/>
      <point x="359" y="395"/>
      <point x="389" y="397" type="curve"/>
      <point x="400" y="399"/>
      <point x="412" y="402"/>
      <point x="412" y="409" type="curve" smooth="yes"/>
      <point x="412" y="414"/>
      <point x="400" y="415"/>
      <point x="392" y="415" type="curve" smooth="yes"/>
      <point x="375" y="415"/>
      <point x="366" y="411"/>
      <point x="329" y="411" type="curve" smooth="yes"/>
      <point x="313" y="411"/>
      <point x="292" y="413"/>
      <point x="282" y="413" type="curve" smooth="yes"/>
      <point x="277" y="413"/>
      <point x="259" y="414"/>
      <point x="259" y="408" type="curve" smooth="yes"/>
      <point x="259" y="401"/>
      <point x="271" y="400"/>
      <point x="282" y="397" type="curve"/>
      <point x="301" y="395"/>
      <point x="310" y="391"/>
      <point x="310" y="382" type="curve" smooth="yes"/>
      <point x="310" y="377"/>
      <point x="307" y="369"/>
      <point x="301" y="360" type="curve"/>
      <point x="238" y="262" type="line" smooth="yes"/>
      <point x="235" y="258"/>
      <point x="232" y="257"/>
      <point x="229" y="262" type="curve" smooth="yes"/>
      <point x="171" y="350" type="line"/>
      <point x="163" y="363"/>
      <point x="158" y="375"/>
      <point x="158" y="382" type="curve" smooth="yes"/>
      <point x="158" y="393"/>
      <point x="167" y="397"/>
      <point x="183" y="400" type="curve" smooth="yes"/>
      <point x="192" y="401"/>
      <point x="201" y="403"/>
      <point x="201" y="408" type="curve" smooth="yes"/>
      <point x="201" y="413"/>
      <point x="183" y="413"/>
      <point x="178" y="413" type="curve" smooth="yes"/>
      <point x="155" y="413"/>
      <point x="154" y="412"/>
      <point x="130" y="412" type="curve" smooth="yes"/>
      <point x="81" y="412"/>
      <point x="85" y="414"/>
      <point x="46" y="414" type="curve" smooth="yes"/>
      <point x="41" y="414"/>
      <point x="23" y="415"/>
      <point x="23" y="409" type="curve" smooth="yes"/>
      <point x="23" y="402"/>
      <point x="35" y="400"/>
      <point x="44" y="398" type="curve" smooth="yes"/>
      <point x="62" y="393"/>
      <point x="72" y="383"/>
      <point x="90" y="356" type="curve" smooth="yes"/>
      <point x="184" y="210" type="line" smooth="yes"/>
      <point x="189" y="202"/>
      <point x="191" y="198"/>
      <point x="182" y="186" type="curve"/>
      <point x="101" y="67" type="line" smooth="yes"/>
      <point x="73" y="27"/>
      <point x="62" y="19"/>
      <point x="33" y="13" type="curve" smooth="yes"/>
      <point x="22" y="11"/>
      <point x="10" y="9"/>
      <point x="10" y="1" type="curve" smooth="yes"/>
      <point x="10" y="-4"/>
      <point x="22" y="-4"/>
    </contour>
  </outline>
</glyph>
<glyph name="asciitilde" format="1">
  <advance width="500"/>
  <unicode hex="007E"/>
  <outline>
    <contour>
      <point x="337" y="277" type="curve" smooth="yes"/>
      <point x="384" y="277"/>
      <point x="442" y="336"/>
      <point x="442" y="366" type="curve" smooth="yes"/>
      <point x="442" y="374"/>
      <point x="434" y="378"/>
      <point x="431" y="378" type="curve" smooth="yes"/>
      <point x="428" y="378"/>
      <point x="387" y="309"/>
      <point x="336" y="309" type="curve" smooth="yes"/>
      <point x="312" y="309"/>
      <point x="287" y="326"/>
      <point x="261" y="344" type="curve" smooth="yes"/>
      <point x="233" y="363"/>
      <point x="203" y="384"/>
      <point x="169" y="384" type="curve" smooth="yes"/>
      <point x="99" y="384"/>
      <point x="51" y="313"/>
      <point x="51" y="290" type="curve" smooth="yes"/>
      <point x="51" y="286"/>
      <point x="57" y="282"/>
      <point x="61" y="282" type="curve" smooth="yes"/>
      <point x="67" y="282"/>
      <point x="101" y="350"/>
      <point x="164" y="350" type="curve" smooth="yes"/>
      <point x="193" y="350"/>
      <point x="220" y="332"/>
      <point x="248" y="314" type="curve" smooth="yes"/>
      <point x="276" y="296"/>
      <point x="305" y="277"/>
    </contour>
  </outline>
</glyph>
